<svg xmlns="http://www.w3.org/2000/svg" viewBox="0 0 512 512"><path d="M101.279 104.971c0-14.471-11.737-26.208-26.208-26.208S48.864 90.5 48.864 104.971l.034 32.408.113 134.015h52.269V104.971z" fill="#ff9269"/><path fill="#ffb082" d="M233.496 390.504V512l-33.759-.045-33.758-182.576z"/><path d="M199.737 363.137v148.818l-72.018-.101v-31.8c0-5.986-2.397-15.146-5.334-20.356L18.332 291.739c-2.926-5.21-5.334-14.37-5.334-20.345l-.146-166.428c0-14.471 11.737-26.208 26.208-26.208s26.208 11.737 26.208 26.208v149.166l134.469 109.005z" fill="#ffcd9c"/><path d="M210.428 334.814l-30.36-30 19.67 164.797a79.598 79.598 0 0 0 33.758 7.494v-86.601c0-17.948-10.375-43.008-23.068-55.69z" fill="#ff9269"/><path d="M199.737 356.746v112.865c-27.052-12.581-46.159-39.745-46.159-71.219v-45.101l-80.637-80.637c-10.229-10.229-10.229-26.827 0-37.055 10.24-10.24 26.827-10.24 37.067 0l70.06 69.216c11.095 13.424 19.669 35.614 19.669 51.931z" fill="#ffb082"/><path d="M410.724 104.971c0-14.471 11.737-26.208 26.208-26.208 14.471 0 26.208 11.737 26.208 26.208l-.034 32.408-.113 134.015h-52.269V104.971z" fill="#ff9269"/><path d="M446.733 254.131V104.97c0-14.471 11.737-26.208 26.208-26.208 14.471 0 26.208 11.737 26.208 26.208l-.146 166.423c0 5.975-2.408 15.135-5.334 20.345L389.617 459.695c-2.937 5.21-5.334 14.37-5.334 20.356v31.8L278.507 512V390.5l168.226-136.369z" fill="#ffcd9c"/><path d="M301.574 334.81L402 235.597c10.234-10.234 26.827-10.234 37.061 0s10.234 26.827 0 37.061l-80.633 80.633v45.107c0 43.469-36.451 78.708-79.92 78.708v-86.607c-.001-17.942 10.379-43.002 23.066-55.689z" fill="#ffb082"/><path fill="#2f5e88" d="M309.451 22.505h56.264v157.538h-56.264z"/><path fill="#367596" d="M146.286 22.505h185.67v157.538h-185.67z"/><path fill="#88acb5" d="M343.21 157.538l-22.506 22.506 22.506 22.505h33.758v-45.011z"/><path fill="#a7cbcf" d="M135.033 157.538h208.176v45.011H135.033z"/><path fill="#88acb5" d="M343.21 0l-22.506 22.505 22.506 22.506h33.758V0z"/><path fill="#a7cbcf" d="M135.033 0h208.176v45.011H135.033z"/><path fill="#88acb5" d="M343.21 78.769l-22.506 22.506 22.506 22.505h33.758V78.769z"/><path fill="#a7cbcf" d="M135.033 78.769h208.176v45.011H135.033z"/></svg>