<svg xmlns="http://www.w3.org/2000/svg" viewBox="0 0 350 350"><path d="M175 149.161c0-20.239-40.48-30.359-50.599 0C114.281 179.52 175 220 175 220v-70.839z" fill="#ff5023"/><path d="M175 149.161c0-20.239 40.479-30.359 50.599 0C235.719 179.52 175 220 175 220v-70.839z" fill="#ff9811"/><path fill="#0052b4" d="M15 280h45v70H15z"/><path fill="#006df0" d="M15 210h45v70H15z"/><path d="M336.772 249.118c-6.411-10.645-20.237-14.078-30.882-7.668l-72.64 37.113a22.426 22.426 0 0 0 6.751-16.064c0-12.427-10.074-22.5-22.5-22.5h-68.21c-28.289 0-41.623-20-89.291-20v100S73 329 90 340c15.169 9.815 22.29 10 33.837 10l74.497-.027c9.333 0 18.667-3.973 29-8.973 10.334-5 101.771-61 101.771-61 10.645-6.411 14.077-20.236 7.667-30.882z" fill="#ffd6a0"/><path d="M59.999 220v100S73 329 90 340c15.169 9.815 22.29 10 33.837 10l51.163-.019L59.999 220z" fill="#ffc170"/><path fill="#0052b4" d="M290 0h45v70h-45z"/><path fill="#006df0" d="M290 70h45v70h-45z"/><path d="M13.228 100.882c6.411 10.646 20.237 14.078 30.882 7.668l72.64-37.113A22.427 22.427 0 0 0 110 87.5c0 12.427 10.074 22.5 22.5 22.5h68.21c28.289 0 41.623 20 89.291 20V30S277 21 260 10C244.831.185 237.71 0 226.163 0l-74.496.027C142.334.027 133 4 122.667 9 112.333 14 20.896 70 20.896 70c-10.646 6.411-14.078 20.236-7.668 30.882z" fill="#ffd6a0"/><path d="M290.001 130V30S277 21 260 10C244.831.185 237.71 0 226.163 0L175 .019 290.001 130z" fill="#ffc170"/></svg>