<svg xmlns="http://www.w3.org/2000/svg" viewBox="0 0 512 512"><path d="M468.59 512c-9.742 0-19.484-3.716-26.918-11.149L232.03 291.209c-14.866-14.866-14.866-38.969 0-53.835 14.866-14.867 38.969-14.867 53.835 0l209.642 209.641c14.866 14.866 14.866 38.969 0 53.835-7.433 7.434-17.175 11.15-26.917 11.15z" fill="#4a5058"/><path d="M478.379 502.211c-9.743 0-19.485-3.716-26.918-11.149L298.048 337.649l-.039-26.288c-.008-5.318 4.644-9.439 9.922-8.79l40.847 5.022c2.242.275 4.285-.285 5.931-1.376l-68.844-68.844c-14.867-14.867-38.97-14.867-53.835 0-14.866 14.866-14.866 38.969 0 53.835l209.643 209.643C449.105 508.284 458.847 512 468.59 512c9.742 0 19.485-3.716 26.918-11.149a38.144 38.144 0 0 0 4.442-5.346 37.984 37.984 0 0 1-21.571 6.706z" opacity=".2"/><g fill="#f5df5d"><path d="M203.443 49.59l27.244-30.845c4.727-5.351 13.518-3.184 15.216 3.75l9.79 39.973c1.265 5.164 6.768 8.053 11.737 6.16l38.458-14.651c6.672-2.542 13.45 3.463 11.73 10.392l-9.908 39.944c-1.28 5.161 2.25 10.276 7.53 10.909l40.862 4.9c7.088.851 10.3 9.317 5.557 14.654l-27.336 30.764c-3.532 3.974-2.782 10.144 1.598 13.158l33.904 23.328c5.882 4.047 4.79 13.035-1.889 15.558l-38.502 14.536c-4.974 1.878-7.178 7.69-4.701 12.394l19.18 36.412c3.327 6.317-1.816 13.769-8.902 12.897l-40.847-5.022c-5.277-.648-9.929 3.473-9.922 8.79l.061 41.154c.011 7.139-8.007 11.347-13.877 7.283l-33.835-23.429c-4.371-3.027-10.407-1.539-12.87 3.173l-19.072 36.469c-3.309 6.327-12.363 6.327-15.672 0l-19.071-36.469c-2.464-4.712-8.499-6.2-12.87-3.173l-33.835 23.429c-5.87 4.065-13.887-.144-13.876-7.283l.061-41.154c.008-5.318-4.644-9.439-9.922-8.79l-40.847 5.022c-7.086.871-12.23-6.581-8.902-12.897l19.18-36.412c2.478-4.704.274-10.515-4.701-12.394l-38.502-14.536c-6.679-2.521-7.77-11.511-1.889-15.558L57.708 178.7c4.38-3.014 5.129-9.184 1.598-13.158L31.97 134.778c-4.742-5.337-1.531-13.803 5.557-14.654l40.862-4.9c5.279-.633 8.81-5.748 7.53-10.909L76.01 64.371c-1.718-6.929 5.059-12.934 11.73-10.392l38.458 14.651c4.968 1.893 10.472-.996 11.737-6.16l9.79-39.973c1.698-6.935 10.49-9.101 15.216-3.75l27.244 30.845c3.522 3.983 9.737 3.983 13.258-.002zm230.344 116.99a8.156 8.156 0 0 1-8.157-8.157V80.466c0-4.506 3.651-8.157 8.157-8.157s8.157 3.651 8.157 8.157v77.956a8.157 8.157 0 0 1-8.157 8.158z"/><path d="M472.765 127.602h-77.956c-4.506 0-8.157-3.651-8.157-8.157s3.651-8.157 8.157-8.157h77.956c4.506 0 8.157 3.651 8.157 8.157s-3.651 8.157-8.157 8.157z"/></g><g fill="#8ccfde"><path d="M87.056 451.005a8.156 8.156 0 0 1-8.157-8.157v-60.454a8.156 8.156 0 0 1 8.157-8.157 8.156 8.156 0 0 1 8.157 8.157v60.454a8.156 8.156 0 0 1-8.157 8.157z"/><path d="M117.282 420.778H56.829a8.156 8.156 0 0 1-8.157-8.157 8.156 8.156 0 0 1 8.157-8.157h60.453a8.156 8.156 0 0 1 8.157 8.157 8.156 8.156 0 0 1-8.157 8.157z"/></g><g fill="#e45d4c"><path d="M38.971 67.257a8.156 8.156 0 0 1-8.157-8.157V8.157C30.814 3.651 34.466 0 38.971 0s8.157 3.651 8.157 8.157v50.942a8.157 8.157 0 0 1-8.157 8.158z"/><path d="M64.443 41.785H13.5c-4.505 0-8.157-3.651-8.157-8.157s3.652-8.157 8.157-8.157h50.942c4.505 0 8.157 3.651 8.157 8.157s-3.651 8.157-8.156 8.157z"/></g><path d="M59.306 165.541c1.885 2.122 2.54 4.867 2.084 7.425l6.577-4.526c4.38-3.014 5.129-9.184 1.598-13.158l-27.336-30.764a8.728 8.728 0 0 1-2.156-4.7l-2.546.306c-7.088.851-10.3 9.317-5.557 14.654l27.336 30.763zm19.083-50.318l-4.368.524 16.713-1.851c5.279-.633 8.81-5.748 7.53-10.909L86.269 54.112c-.047-.189-.064-.373-.098-.56-6.114-1.147-11.744 4.434-10.161 10.819l9.908 39.944c1.281 5.16-2.25 10.275-7.529 10.908zm202.296 220.549l-33.835-23.429c-4.371-3.027-10.406-1.539-12.87 3.173l-2.893 5.532a8.79 8.79 0 0 1 5.505 1.554l33.835 23.429c5.87 4.065 13.887-.144 13.877-7.283l-.002-1.51a8.817 8.817 0 0 1-3.617-1.466zm64.115-52.264l-49.558-5.969c-5.277-.648-9.929 3.473-9.922 8.789 0 0 .233 2.963.847 5.756 1.841-2.311 4.8-3.674 7.995-3.281l40.847 5.022c6.137.754 10.806-4.732 9.791-10.317zm-145.562 68.476l-19.071-36.469c-2.464-4.712-8.499-6.199-12.87-3.173l-33.835 23.429c-5.87 4.065-13.887-.144-13.877-7.283l.061-41.154c.008-5.316-4.644-9.439-9.922-8.79l-40.847 5.022c-7.086.871-12.23-6.581-8.902-12.897l19.18-36.412c2.478-4.704.274-10.515-4.701-12.394l-38.502-14.536c-4.284-1.617-6.254-5.893-5.575-9.821l-6.572 4.522c-5.882 4.047-4.79 13.035 1.889 15.558l38.502 14.536c4.974 1.878 7.178 7.69 4.701 12.394l-19.18 36.412c-3.327 6.317 1.816 13.769 8.902 12.897l40.847-5.022c5.277-.648 9.929 3.473 9.922 8.79l-.061 41.154c-.011 7.139 8.007 11.347 13.876 7.283l33.835-23.429c4.371-3.027 10.407-1.539 12.87 3.173l19.071 36.469c3.309 6.327 12.363 6.327 15.672 0l2.9-5.545c-3.247.172-6.574-1.388-8.313-4.714z" opacity=".1"/></svg>