<svg xmlns="http://www.w3.org/2000/svg" viewBox="0 0 519.2 519.2"><path fill="#44c4a1" d="M454.4 312l52.8-52.8-52.8-52.8 19.2-71.2-71.2-19.2-19.2-71.2L312 64l-52.8-52.8L206.4 64l-71.2-19.2L116 116l-71.2 19.2L64 206.4l-52.8 52.8L64 312l-19.2 71.2 71.2 19.2 19.2 71.2 71.2-19.2 52.8 52.8 52.8-52.8 71.2 19.2 19.2-71.2 71.2-19.2z"/><circle cx="259.2" cy="259.2" r="172" fill="#fff"/><path d="M344 267.2h4c9.6 0 18.4-6.4 20-16 2.4-12.8-7.2-24-20-24h-63.2c-5.6-2.4 0-17.6 0-17.6 13.6-21.6 15.2-32.8 15.2-32.8 8-53.6-32-44.8-32-44.8 2.4 52-25.6 64-25.6 64-8.8 3.2-12 18.4-12 18.4-4.8 20-14.4 32.8-20.8 40-4.8 4.8-12 8-19.2 8v100.8s32.8 22.4 99.2 24.8h36.8c11.2 0 20.8-8 20.8-19.2.8-11.2-8.8-20.8-20-20.8h7.2c11.2 0 20.8-8 20.8-19.2.8-11.2-8.8-20.8-20-20.8h5.6c11.2 0 20.8-8 20.8-19.2 3.2-12-6.4-21.6-17.6-21.6z" fill="#ffbf5d"/><path fill="#f15f50" d="M149.6 254.4h41.6v116h-41.6z"/><g fill="#193651"><path d="M34.4 388.8l75.2 20 20 75.2 75.2-20 54.4 55.2 55.2-55.2 75.2 20 20-75.2 75.2-20-20-75.2 54.4-55.2-54.4-54.4 20-75.2-75.2-20-20-75.2-75.2 20L259.2 0 204 55.2l-75.2-20-20 75.2-75.2 20 20 75.2L0 259.2l54.4 55.2-20 74.4zm-12-129.6l50.4-50.4-18.4-68 68-18.4 18.4-68 68 18.4 50.4-50.4 50.4 50.4 68-18.4 18.4 68 68 18.4-18.4 68 50.4 50.4-50.4 50.4 18.4 68-68 18.4-18.4 68-68-18.4-50.4 50.4-50.4-50.4-68 18.4-18.4-68-68-18.4 18.4-68-50.4-50.4z"/><path d="M212.833 142.171l-11.314 11.314-11.314-11.314 11.314-11.313zm-29.448 29.669l-11.314 11.314-11.313-11.314 11.313-11.313zm-29.48 29.621l-11.314 11.314-11.313-11.314 11.313-11.314z"/></g></svg>