<svg xmlns="http://www.w3.org/2000/svg" width="512" height="512"><path d="M405.333 266.667V224c0-17.673-14.327-32-32-32H224c-17.673 0-32 14.327-32 32v256c0 17.673 14.327 32 32 32h149.333c17.673 0 32-14.327 32-32v-53.333H384V480c0 5.891-4.776 10.667-10.667 10.667H224c-5.891 0-10.667-4.776-10.667-10.667V224c0-5.891 4.776-10.667 10.667-10.667h149.333c5.891 0 10.667 4.776 10.667 10.667v42.667h21.333z" data-original="#000000" class="active-path" data-old_color="#ffce00" fill="#ffce00"/><path d="M458.667 347.325c-1.291-34.055-29.945-60.616-64-59.325h-96c-5.891 0-10.667 4.776-10.667 10.667a61.761 61.761 0 0 0 0 4.675c1.291 34.055 29.945 60.616 64 59.325h11.733c3.762 25.601 26.431 44.106 52.267 42.667V384a30.262 30.262 0 0 1-3.244 0c-16.777-.896-29.652-15.223-28.756-32 0-5.891-4.776-10.667-10.667-10.667H352c-19.956 1.562-37.835-12.287-41.312-32h83.979c1.739 0 42.667.491 42.667 42.667h21.333a61.761 61.761 0 0 0 0-4.675z" data-original="#000000" class="active-path" data-old_color="#ffce00" fill="#ffce00"/><path d="M501.333 320H448v21.333h42.667v96H448v21.333h53.333c5.891 0 10.667-4.776 10.667-10.667V330.667c0-5.891-4.776-10.667-10.667-10.667zm-298.666-21.333h-21.333c-17.673 0-32 14.327-32 32 0 17.673 14.327 32 32 32h21.333c5.891 0 10.667-4.776 10.667-10.667v-42.667c-.001-5.891-4.776-10.666-10.667-10.666zM192 341.333h-10.667c-5.891 0-10.667-4.776-10.667-10.667s4.776-10.667 10.667-10.667H192v21.334z" data-original="#000000" class="active-path" data-old_color="#ffce00" fill="#ffce00"/><path d="M202.667 341.333h-21.333c-17.673 0-32 14.327-32 32s14.327 32 32 32h21.333c5.891 0 10.667-4.776 10.667-10.667V352c-.001-5.891-4.776-10.667-10.667-10.667zM192 384h-10.667c-5.891 0-10.667-4.776-10.667-10.667s4.776-10.667 10.667-10.667H192V384z" data-original="#000000" class="active-path" data-old_color="#ffce00" fill="#ffce00"/><path d="M202.667 384h-21.333c-17.673 0-32 14.327-32 32s14.327 32 32 32h21.333c5.891 0 10.667-4.776 10.667-10.667v-42.667c-.001-5.89-4.776-10.666-10.667-10.666zM192 426.667h-10.667c-5.891 0-10.667-4.776-10.667-10.667s4.776-10.667 10.667-10.667H192v21.334z" data-original="#000000" class="active-path" data-old_color="#ffce00" fill="#ffce00"/><path d="M202.667 426.667h-21.333c-17.673 0-32 14.327-32 32s14.327 32 32 32h21.333c5.891 0 10.667-4.776 10.667-10.667v-42.667c-.001-5.891-4.776-10.666-10.667-10.666zM192 469.333h-10.667c-5.891 0-10.667-4.776-10.667-10.667S175.442 448 181.333 448H192v21.333zm245.333-42.666c0 23.564-19.103 42.667-42.667 42.667v21.333c35.332-.035 63.965-28.668 64-64h-21.333zm-160 21.333H320v21.333h-42.667zm-42.666-213.333H256V256h-21.333zm42.666 0h21.333V256h-21.333zm-42.666 42.666H256v21.333h-21.333z" data-original="#000000" class="active-path" data-old_color="#ffce00" fill="#ffce00"/><path d="M330.667 0H32C14.327 0 0 14.327 0 32v213.333c0 17.673 14.327 32 32 32h138.667V256H32c-5.891 0-10.667-4.776-10.667-10.667V32c0-5.891 4.776-10.667 10.667-10.667h298.667c5.891 0 10.667 4.776 10.667 10.667v138.667h21.333V32c0-17.673-14.327-32-32-32z" data-original="#000000" class="active-path" data-old_color="#ffce00" fill="#ffce00"/><path data-original="#000000" class="active-path" data-old_color="#ffce00" fill="#ffce00" d="M96 266.667h21.333V320H96z"/><path data-original="#000000" class="active-path" data-old_color="#ffce00" fill="#ffce00" d="M74.667 309.333H128v21.333H74.667zM256 64h-42.667v21.333H256c5.891 0 10.667 4.776 10.667 10.667v21.333c0 5.891-4.776 10.667-10.667 10.667h-48.917l13.792-13.792-15.083-15.083-32 32a10.669 10.669 0 0 0-3.123 7.539c-.001 5.891 4.773 10.668 10.664 10.669H256c17.673 0 32-14.327 32-32V96c0-17.673-14.327-32-32-32zm-67.125 3.125l-32-32-15.083 15.083L155.584 64h-48.917c-17.673 0-32 14.327-32 32v21.333c0 17.673 14.327 32 32 32h42.667V128h-42.667C100.776 128 96 123.224 96 117.333V96c0-5.891 4.776-10.667 10.667-10.667h74.667a10.669 10.669 0 0 0 7.539-3.123c4.166-4.165 4.167-10.918.002-15.085z"/><path data-original="#000000" class="active-path" data-old_color="#ffce00" fill="#ffce00" d="M141.788 99.125l32.003-32.003 15.084 15.085-32.002 32.002zm31.998 47.082l15.085-15.084 32.003 32.002-15.085 15.085zm-99.119 67.126c-5.891 0-10.667-4.776-10.667-10.667v-21.333H42.667v21.333c0 17.673 14.327 32 32 32H96v-21.333H74.667zm42.666 0h21.333v21.333h-21.333z"/></svg>