<svg xmlns="http://www.w3.org/2000/svg" viewBox="0 0 480.21 480.21" width="512" height="512"><path d="M372.189 256.191l-51.928-66.104a111.559 111.559 0 0 0 31.424-70.08h80.408v8.8c-18.613 3.825-31.979 20.198-32 39.2.005 22.091 17.917 39.996 40.008 39.992s39.996-17.917 39.992-40.008c-.004-19.005-13.379-35.383-32-39.184v-16.8a8 8 0 0 0-8-8h-88.408a111.286 111.286 0 0 0-23.44-60.84l11.16-11.16h94.16c4.418 12.497 18.131 19.046 30.627 14.627 12.497-4.418 19.046-18.131 14.627-30.627s-18.13-19.046-30.626-14.628a23.998 23.998 0 0 0-14.627 14.627h-97.472a8 8 0 0 0-5.656 2.344l-12.92 12.92C273.06-11.546 202.31-10.215 159.493 34.243a111.76 111.76 0 0 0-30.991 69.763h-67.2L35.149 45.183C46.84 39.03 51.33 24.566 45.178 12.875S24.561-3.305 12.87 2.847C1.18 8.999-3.31 23.463 2.842 35.154A23.917 23.917 0 0 0 18.581 47.31l30.2 67.952a8 8 0 0 0 7.312 4.744h72.408a111.51 111.51 0 0 0 30.856 69.424l-67.536 67.536C48.152 250.423 7.447 280.519.904 324.188c-6.543 43.669 23.553 84.374 67.222 90.917 1.318.198 2.641.362 3.967.493v40.408a8 8 0 0 0 8 8h73.472c4.418 12.497 18.131 19.046 30.627 14.627s19.046-18.131 14.627-30.627-18.131-19.046-30.627-14.627a23.998 23.998 0 0 0-14.627 14.627H88.093v-32.408c43.938-4.38 76.007-43.55 71.627-87.489a79.952 79.952 0 0 0-50.027-66.367l61.6-61.6c40.116 31.586 96.582 31.813 136.952.552l44.384 56.496c-61.285 8.549-104.036 65.16-95.487 126.444 8.549 61.285 65.16 104.036 126.444 95.487 61.285-8.549 104.036-65.16 95.487-126.444-7.508-53.83-52.569-94.507-106.884-96.486zm91.904-88.184c0 13.255-10.745 24-24 24s-24-10.745-24-24 10.745-24 24-24 24 10.745 24 24zm-8-152a8 8 0 1 1 0 16 8 8 0 0 1 0-16zm-432 16a8 8 0 1 1 0-16 8 8 0 0 1 0 16zm152 416a8 8 0 1 1 0 16 8 8 0 0 1 0-16zm-64-56.656a63.456 63.456 0 0 1-64 0v-15.344c0-17.673 14.327-32 32-32s32 14.327 32 32v15.344zm-48-79.344c0-8.837 7.163-16 16-16s16 7.163 16 16-7.163 16-16 16-16-7.164-16-16zm64-18.472a64.003 64.003 0 0 1 16 42.472 63.662 63.662 0 0 1-16 42.192v-2.192a48 48 0 0 0-24.856-42.024c12.203-12.784 11.731-33.04-1.053-45.243-12.784-12.202-33.04-11.731-45.243 1.053-11.803 12.365-11.803 31.824 0 44.189a48 48 0 0 0-24.848 42.024v2.192c-23.379-26.51-20.841-66.953 5.668-90.332 26.51-23.379 66.953-20.841 90.332 5.669zm168-103.736c-33.397 24.246-78.603 24.246-112 0v-19.392c0-14.58 11.82-26.4 26.4-26.4h17.76l-11.608 29.024a8 8 0 0 0 1.776 8.632l16 16a8 8 0 0 0 11.312 0l16-16a8.001 8.001 0 0 0 1.776-8.632l-11.6-29.024h17.784c14.58 0 26.4 11.82 26.4 26.4v19.392zM241.238 59.887c-.3.5-.544 1.03-.728 1.583-4.048 12.136-25.903 16.736-39.975 18.072 2.146-26.81 14.762-39.536 39.559-39.536 22.704 0 35.2 10.736 38.776 33.136l-26.656-16a8.001 8.001 0 0 0-10.976 2.745zm9.887 15.272l28.592 17.16c-3.208 19.584-27.344 35.688-39.624 35.688a50.402 50.402 0 0 1-38.888-32.416c13.696-1.128 38.424-5.28 49.92-20.432zm-4.424 98.92l-6.608 6.616-6.608-6.616 6.608-16.536 6.608 16.536zm28.296-45.704a55.54 55.54 0 0 0 21.096-40.368c0-52.896-30.456-64-56-64s-56 11.104-56 64a55.537 55.537 0 0 0 21.096 40.392c-21.206 2.613-37.127 20.641-37.096 42.008v4.864c-35.069-39.764-31.263-100.429 8.502-135.498C216.36 4.704 277.024 8.51 312.093 48.274c32 36.285 32 90.711 0 126.996v-4.864c.043-21.375-15.881-39.418-37.096-42.031zm149.096 317.424c-33.397 24.246-78.603 24.246-112 0v-19.392c0-14.58 11.82-26.4 26.4-26.4h17.76l-11.608 29.024a8.001 8.001 0 0 0 1.776 8.632l16 16a8 8 0 0 0 11.312 0l16-16a8.001 8.001 0 0 0 1.776-8.632l-11.6-29.024h17.784c14.58 0 26.4 11.82 26.4 26.4v19.392zm-44.968-114.64v-.008l28.592 17.16c-3.208 19.592-27.344 35.696-39.624 35.696a50.402 50.402 0 0 1-38.888-32.416c13.696-1.128 38.424-5.281 49.92-20.432zm-50.592 4.384c2.144-26.808 14.76-39.536 39.56-39.536 22.704 0 35.2 10.736 38.776 33.136l-26.656-16a8 8 0 0 0-11.704 4.328c-4.048 12.136-25.904 16.736-39.976 18.072zm46.168 94.536l-6.608 6.616-6.608-6.616 6.608-16.536 6.608 16.536zm65.392 1.215v-4.888c.043-21.376-15.881-39.418-37.096-42.032a55.54 55.54 0 0 0 21.096-40.368c0-52.896-30.456-64-56-64s-56 11.104-56 64a55.537 55.537 0 0 0 21.096 40.392c-21.206 2.613-37.127 20.641-37.096 42.008v4.864c-34.987-39.795-31.089-100.419 8.706-135.406 39.795-34.987 100.419-31.089 135.406 8.706a95.94 95.94 0 0 1 23.888 63.435 95.495 95.495 0 0 1-24 63.289z" data-original="#000000" class="active-path" data-old_color="#f8c12c" fill="#f8c12c"/></svg>