<svg xmlns="http://www.w3.org/2000/svg" viewBox="0 0 496.941 496.941" width="512" height="512"><path d="M475.299 106.918l-12.047-3.765c-3.012-.753-6.024-1.506-9.788-1.506-13.553 0-25.6 9.035-30.118 21.835l-6.776 20.329V128c0-2.259-1.506-4.518-3.012-6.024L290.076 2.259C288.57.753 286.311 0 284.805 0H43.111c-4.518 0-7.529 3.012-7.529 7.529V30.87H7.723c-4.518 0-7.529 3.012-7.529 7.529v451.012c0 4.518 3.012 7.529 7.529 7.529h365.929c4.518 0 7.529-3.012 7.529-7.529V466.07h27.859c4.518 0 7.529-3.012 7.529-7.529V356.894l21.082-28.612.753-2.259 56.471-179.953c6.024-16.564-3.011-33.882-19.576-39.152zM292.334 25.6l98.635 94.871h-98.635V25.6zm73.789 456.282H15.252V45.929h20.329v412.612c0 4.518 3.012 7.529 7.529 7.529h323.012v15.812zm36.141-30.87H50.64V15.059h226.635V128c0 4.518 3.012 7.529 7.529 7.529h117.459V192l-35.388 111.435v2.259l1.506 95.624c0 3.012 2.259 6.024 5.271 6.776 3.012.753 6.776 0 8.282-3.012l20.329-27.106v73.036zm-19.577-73.036l-1.506-62.494 37.647 12.047-36.141 50.447zm98.636-236.423l-54.212 172.424-43.671-14.306L437.652 128c3.012-8.282 12.047-13.553 20.329-10.541l12.047 3.765c9.036 2.258 14.306 12.047 11.295 20.329z" data-original="#000000" class="active-path" data-old_color="#ffce00" fill="#ffce00"/><path d="M101.84 135.529h108.424c4.518 0 7.529-3.012 7.529-7.529V51.2c0-4.518-3.012-7.529-7.529-7.529H101.84c-4.518 0-7.529 3.012-7.529 7.529V128c0 3.765 3.765 7.529 7.529 7.529zm7.53-76.8h93.365v61.741H109.37V58.729zM86.782 206.306h228.894c4.518 0 7.529-3.012 7.529-7.529 0-4.518-3.012-7.529-7.529-7.529H86.782c-4.518 0-7.529 3.012-7.529 7.529-.001 4.517 3.011 7.529 7.529 7.529zm0 54.965h228.894c4.518 0 7.529-3.012 7.529-7.529s-3.012-7.529-7.529-7.529H86.782c-4.518 0-7.529 3.012-7.529 7.529s3.011 7.529 7.529 7.529zm0 54.964h228.894c4.518 0 7.529-3.012 7.529-7.529s-3.012-7.529-7.529-7.529H86.782c-4.518 0-7.529 3.012-7.529 7.529s3.011 7.529 7.529 7.529zm235.67 47.436c0-4.518-3.012-7.529-7.529-7.529H86.782c-4.518 0-7.529 3.012-7.529 7.529s3.012 7.529 7.529 7.529h228.894c3.764 0 6.776-3.765 6.776-7.529zm24.847 47.435H233.605c-4.518 0-7.529 3.012-7.529 7.529s3.012 7.529 7.529 7.529h112.941c4.518 0 7.529-3.012 7.529-7.529s-3.011-7.529-6.776-7.529z" data-original="#000000" class="active-path" data-old_color="#ffce00" fill="#ffce00"/></svg>