<svg data-name="Layer 1" xmlns="http://www.w3.org/2000/svg" viewBox="0 0 247 115"><path d="M166.6 40.63H80.4l5.1-35.6a4.91 4.91 0 0 1 4.9-4.9h66.2a4.91 4.91 0 0 1 4.9 4.9z" fill="#fff" stroke="#000" stroke-miterlimit="10" stroke-width=".25"/><path d="M103.3 32.53v-20.5h-3.6v-3.7h11.9v3.7h-3.5v20.6h-4.8zm8.1 0l5.2-24.2h4.3l5.2 24.2h-4.8l-1-5.2h-3.2l-.9 5.2zm6.2-8.2h2.5l-1.2-9zm9 8.2l3.9-12.5-3.9-11.7h4.7l2.3 7.2 2.5-7.2h4.6l-3.9 11.6 3.9 12.6h-4.6l-2.3-8-2.3 8zm15.7 0V8.33h4.9v24.2z"/><text transform="translate(5.73 91.59)" font-size="58" font-family="Exo20-ExtraBold,Exo 2" font-weight="700">ON<tspan x="82.82" y="0" letter-spacing="-.02em"> </tspan><tspan x="93.96" y="0">TIME</tspan></text></svg>