<svg xmlns="http://www.w3.org/2000/svg" viewBox="0 0 240.9 109.6"><path d="M0 90.7V70.8c0-13.4 5.6-20 16.7-20 2.3 0 4.4.3 6.3.9 1.8.6 3.4 1.5 4.6 2.6 1.2 1.1 2.3 2.4 3 4 .8 1.6 1.4 3.3 1.7 5.2.4 1.9.5 3.9.5 6.2V73H21.9v-4c0-1 0-1.8-.1-2.6-.1-.7-.2-1.6-.4-2.5-.2-.9-.5-1.7-.8-2.2-.4-.6-.9-1.1-1.5-1.5-.7-.4-1.5-.6-2.4-.6-3.5 0-5.2 2.8-5.2 8.4v24.4c0 5.6 1.7 8.3 5.2 8.3s5.2-2.9 5.2-8.6v-4.5h-6.5v-8.2h17.9v29.1h-7.9l-1.4-4c-1 1.5-2.3 2.7-4.1 3.7-1.8.9-3.6 1.4-5.5 1.4-2 0-3.9-.4-5.5-1.1-1.7-.7-3-1.7-4.1-3-1.1-1.2-2-2.7-2.7-4.3-.7-1.7-1.3-3.3-1.6-5.1S0 92.5 0 90.7zm39.6 17.7V51.8H52c2.8 0 5.3.3 7.5.8 2.1.5 4 1.4 5.6 2.5 1.6 1.1 2.8 2.7 3.7 4.6.8 1.9 1.3 4.3 1.3 7 0 1.2 0 2.2-.1 3.1-.1.9-.3 2-.6 3.2-.3 1.2-.7 2.2-1.2 3.1-.5.9-1.3 1.8-2.3 2.7-1 .9-2.1 1.6-3.5 2.2 3.4 10.8 6.3 19.9 8.9 27.3H59.4l-6.5-26H51v26H39.6zm11.5-33h3.3c.9 0 1.6-.3 2.3-.9.6-.6 1.1-1.3 1.4-2.2.3-.9.5-1.7.6-2.5.1-.8.2-1.5.2-2.1 0-.7 0-1.4-.1-2.1s-.3-1.5-.5-2.4c-.2-.9-.6-1.6-1.2-2.1-.6-.6-1.2-.8-2-.8h-3.8v15.1zm20.7 33L84 51.8h10.1l12.2 56.6H95.1l-2.3-12.1h-7.4l-2.2 12.1H71.8zm14.3-19.1H92l-2.9-21-3 21zm23.9 19.1V51.8h11.7c2.1 0 3.9.1 5.5.3 1.6.2 3.2.6 4.7 1.3 1.5.6 2.8 1.5 3.8 2.6s1.8 2.5 2.4 4.2c.6 1.7.9 3.8.9 6.2 0 3-.7 5.3-2.1 7-1.4 1.7-3.6 3-6.5 4 6.7 1.6 10.1 6.4 10.1 14.3 0 5.7-1.4 9.9-4.1 12.6s-6.9 4.1-12.5 4.1H110zm11.3-34.3h1.9c1 0 1.9-.2 2.6-.6.7-.4 1.3-1 1.6-1.7.4-.8.6-1.6.8-2.5.1-.9.2-1.9.2-3.1 0-.9-.1-1.8-.2-2.5s-.3-1.3-.5-1.8-.5-.9-.8-1.2c-.4-.3-.7-.6-1.1-.7s-.8-.3-1.4-.3c-.6-.1-1.1-.1-1.5-.1h-1.8v14.5zm.1 26.2h1.1c1.5 0 2.7-.2 3.6-.5.9-.3 1.6-.9 2.1-1.8.5-.8.8-1.8 1-2.8.2-1.1.2-2.5.2-4.3 0-3-.5-5.2-1.6-6.9-1-1.6-2.8-2.5-5.3-2.5h-1.1v18.8zm24.4 8.1V51.8h11.7c2.1 0 3.9.1 5.5.3 1.6.2 3.2.6 4.7 1.3 1.5.6 2.8 1.5 3.8 2.6s1.8 2.5 2.4 4.2c.6 1.7.9 3.8.9 6.2 0 3-.7 5.3-2.1 7-1.4 1.7-3.6 3-6.5 4 6.7 1.6 10.1 6.4 10.1 14.3 0 5.7-1.4 9.9-4.1 12.6-2.7 2.7-6.9 4.1-12.5 4.1h-13.9zm11.4-34.3h1.9c1 0 1.9-.2 2.6-.6.7-.4 1.3-1 1.6-1.7.4-.8.6-1.6.8-2.5.1-.9.2-1.9.2-3.1 0-.9-.1-1.8-.2-2.5s-.3-1.3-.5-1.8-.5-.9-.8-1.2c-.4-.3-.7-.6-1.1-.7s-.8-.3-1.4-.3c-.6-.1-1.1-.1-1.5-.1H157v14.5zm0 26.2h1.1c1.5 0 2.7-.2 3.6-.5.9-.3 1.6-.9 2.1-1.8s.8-1.8 1-2.8c.2-1.1.2-2.5.2-4.3 0-3-.5-5.2-1.6-6.9s-2.8-2.5-5.3-2.5h-1.1v18.8zm24.4 8.1V51.8h23.6v7.9H193v15.4h8.6v8H193v17.4h12.2v7.9h-23.6zm27.7 0V51.8h12.4c2.8 0 5.3.3 7.5.8 2.1.5 4 1.4 5.6 2.5 1.6 1.1 2.8 2.7 3.7 4.6.8 1.9 1.3 4.3 1.3 7 0 1.2 0 2.2-.1 3.1-.1.9-.3 2-.6 3.2-.3 1.2-.7 2.2-1.2 3.1-.5.9-1.3 1.8-2.3 2.7-1 .9-2.1 1.6-3.5 2.2 3.4 10.8 6.3 19.9 8.9 27.3h-11.8l-6.5-26h-1.9v26h-11.5zm11.4-33h3.3c.9 0 1.6-.3 2.3-.9.6-.6 1.1-1.3 1.4-2.2s.5-1.7.6-2.5c.1-.8.2-1.5.2-2.1 0-.7 0-1.4-.1-2.1s-.3-1.5-.5-2.4c-.2-.9-.6-1.6-1.2-2.1-.6-.6-1.2-.8-2-.8h-3.8v15.1z"/><path d="M163.6 40.6H77.4L82.5 5c0-2.7 2.2-4.9 4.9-4.9h66.2c2.7 0 4.9 2.2 4.9 4.9l5.1 35.6z" fill="#fff"/><path d="M100.3 32.5V12h-3.6V8.3h11.9V12h-3.5v20.6h-4.8zm8.1 0l5.2-24.2h4.3l5.2 24.2h-4.8l-1-5.2h-3.2l-.9 5.2h-4.8zm6.2-8.2h2.5l-1.2-9-1.3 9zm9 8.2l3.9-12.5-3.9-11.7h4.7l2.3 7.2 2.5-7.2h4.6l-3.9 11.6 3.9 12.6h-4.6l-2.3-8-2.3 8h-4.9zm15.7 0V8.3h4.9v24.2h-4.9z"/></svg>