<svg id="Layer_1" xmlns="http://www.w3.org/2000/svg" viewBox="0 0 240.9 109.6"><style/><path d="M163.6 40.6H77.4L82.5 5c0-2.7 2.2-4.9 4.9-4.9h66.2c2.7 0 4.9 2.2 4.9 4.9l5.1 35.6z" fill="#fff" stroke="#000" stroke-width=".25" stroke-miterlimit="10"/><path d="M100.3 32.5V12h-3.6V8.3h11.9V12h-3.5v20.6l-4.8-.1zm8.1 0l5.2-24.2h4.3l5.2 24.2h-4.8l-1-5.2h-3.2l-.9 5.2h-4.8zm6.2-8.2h2.5l-1.2-9-1.3 9zm9 8.2l3.9-12.5-3.9-11.7h4.7l2.3 7.2 2.5-7.2h4.6l-3.9 11.6 3.9 12.6h-4.6l-2.3-8-2.3 8h-4.9zm15.7 0V8.3h4.9v24.2h-4.9z"/><path fill="none" d="M-3 51h247v64H-3z"/><text transform="translate(2.123 91.57)" font-size="58" font-family="Exo2.0-ExtraBold">ON TIME</text></svg>