<svg xmlns="http://www.w3.org/2000/svg" width="512" height="512" viewBox="0 0 575.162 575.162"><path d="M439.723 143.704c-42.227-42.195-156.553-19.38-149.494-26.345L155.482 252.138c48.687 21.176 82.814 69.61 82.814 126.112 0 48.812-25.556 91.448-63.875 115.87l31.354 31.355c15.536 15.566 40.746 15.566 56.281 0l218.096-218.128c-6.995 7.059 20.547-102.667-40.429-163.643zm-67.972 110.923c-22.626 0-40.998-18.372-40.998-41.029s18.372-40.998 40.998-40.998c22.657 0 40.997 18.34 40.997 40.998s-18.372 41.029-40.997 41.029zM0 402.42h170.198v-56.785H0v56.785zM478.325 83.579c-15.725 0-28.487 12.731-28.487 28.487 0 15.693 12.731 28.393 28.487 28.393s28.487-12.699 28.487-28.393c0-15.725-12.762-28.487-28.487-28.487zm68.351-45.567c-15.726 0-28.487 12.731-28.487 28.456 0 15.756 12.763 28.519 28.487 28.519s28.486-12.762 28.486-28.519c-.031-15.725-12.762-28.456-28.486-28.456z" data-original="#000000" class="active-path" data-old_color="#f8c12c" fill="#f8c12c"/></svg>