<svg xmlns="http://www.w3.org/2000/svg" width="512" height="512"><path d="M344.178 240.484c-8.386 0-16.595.77-24.564 2.233v-91.442h.516a7.5 7.5 0 0 0 0-15h-.516V45.832c9.308-3.139 16.032-11.946 16.032-22.3C335.646 10.557 325.089 0 312.114 0H55.597C42.621 0 32.065 10.557 32.065 23.532c0 10.354 6.724 19.16 16.032 22.3v90.443h-.516a7.5 7.5 0 0 0 0 15h.516V248.5h-.516a7.5 7.5 0 0 0 0 15h.516v90.442c-9.308 3.139-16.032 11.946-16.032 22.3 0 12.976 10.557 23.532 23.532 23.532h154.869C221.642 463.454 277.346 512 344.178 512c74.857 0 135.758-60.901 135.758-135.758.001-74.857-60.9-135.758-135.758-135.758zM47.066 23.532c0-4.704 3.827-8.532 8.532-8.532h256.516c4.705 0 8.532 3.828 8.532 8.532 0 4.704-3.828 8.532-8.532 8.532H296.08a7.5 7.5 0 0 0 0 15h8.534v89.21H63.097v-89.21h200.916a7.5 7.5 0 0 0 0-15H55.597c-4.704 0-8.531-3.828-8.531-8.532zm161.631 361.242h-153.1c-4.705 0-8.532-3.828-8.532-8.533s3.828-8.532 8.532-8.532h153.099c-.176 2.823-.276 5.666-.276 8.532s.101 5.71.277 8.533zm-145.6-32.065V263.5h176.871a7.5 7.5 0 0 0 0-15H63.097v-97.226h241.516v95.096c-48.314 14.748-85.272 55.768-94.147 106.339H63.097zM344.178 497c-66.586 0-120.758-54.172-120.758-120.758s54.172-120.758 120.758-120.758 120.758 54.172 120.758 120.758C464.937 442.828 410.765 497 344.178 497z" data-original="#000000" class="active-path" data-old_color="#ffce00" fill="#ffce00"/><path d="M376.264 342.738a7.503 7.503 0 0 0-10.381-2.186 7.5 7.5 0 0 0-2.187 10.378c13.791 21.155 21.08 38.223 21.08 49.36 0 22.385-18.212 40.597-40.597 40.597s-40.597-18.211-40.597-40.597c0-20.985 25.552-57.47 40.578-76.352.658.829 1.36 1.72 2.101 2.669a7.5 7.5 0 0 0 11.831-9.221c-4.827-6.193-8.082-9.996-8.217-10.155a7.502 7.502 0 0 0-11.389 0c-5.108 5.959-49.902 59.197-49.902 93.059 0 30.656 24.94 55.597 55.597 55.597s55.597-24.94 55.597-55.597c-.001-14.254-7.912-33.617-23.514-57.552z" data-original="#000000" class="active-path" data-old_color="#ffce00" fill="#ffce00"/></svg>