<?xml version="1.0" standalone="no"?>
<!DOCTYPE svg PUBLIC "-//W3C//DTD SVG 1.1//EN" "http://www.w3.org/Graphics/SVG/1.1/DTD/svg11.dtd" >
<svg xmlns="http://www.w3.org/2000/svg" xmlns:xlink="http://www.w3.org/1999/xlink" version="1.1">
<metadata>
Created by FontForge 20170910 at Fri Jan  1 01:00:00 1904
 By Jimmy Wärting
(c) 1992, Tilde Ltd. AG Fonts Collection. Created by Andrejs Grinbergs.
</metadata>
<defs>
<font id="AGHelveticaCyrOblique" horiz-adv-x="2277" >
  <font-face 
    font-family="AGHelveticaCyr"
    font-weight="400"
    font-style="oblique"
    font-stretch="normal"
    units-per-em="4096"
    panose-1="2 11 114 0 0 0 0 0 0 0"
    ascent="3276"
    descent="-820"
    x-height="2142"
    cap-height="2941"
    bbox="-381 -901 4428 3690"
    underline-thickness="20"
    underline-position="-143"
    slope="-12"
    unicode-range="U+0020-2122"
  />
<missing-glyph horiz-adv-x="3072" 
d="M512 0v2560h2048v-2560h-2048zM2494 66v2428h-1916v-2428h1916z" />
    <glyph glyph-name=".notdef" horiz-adv-x="3072" 
d="M512 0v2560h2048v-2560h-2048zM2494 66v2428h-1916v-2428h1916z" />
    <glyph glyph-name=".null" horiz-adv-x="0" 
 />
    <glyph glyph-name="nonmarkingreturn" horiz-adv-x="0" 
 />
    <glyph glyph-name="space" unicode=" " horiz-adv-x="2048" 
 />
    <glyph glyph-name="exclam" unicode="!" horiz-adv-x="1139" 
d="M856 418l-90 -418h-397l90 418h397zM815 700h-201l172 1270l209 971h398l-209 -971z" />
    <glyph glyph-name="quotedbl" unicode="&#x22;" horiz-adv-x="1454" 
d="M688 1896l225 1045h299l-225 -1045h-299zM1270 1896l225 1045h299l-225 -1045h-299z" />
    <glyph glyph-name="numbersign" unicode="#" 
d="M1774 860l-304 -860h-270l303 860h-512l-303 -860h-270l303 860h-422l90 258h422l201 582h-422l94 258h422l299 860h274l-299 -860h508l299 860h275l-299 -860h422l-95 -258h-422l-204 -582h422l-91 -258h-421zM1794 1700h-508l-205 -582h512z" />
    <glyph glyph-name="dollar" unicode="$" 
d="M1393 1675l200 938q-226 0 -386 -138t-203 -337q-13 -48 -13 -98q0 -154 113 -243.5t289 -121.5zM1495 1262l-221 -1041q258 0 432 151t219 365q12 55 12 107q0 130 -64 222t-169 126zM2515 2134h-348q0 215 -78 326t-303 153l-209 -979q281 -86 427.5 -150.5
t234.5 -174.5t88 -293q0 -85 -25 -213q-68 -319 -255.5 -518t-411.5 -281t-423 -82l-82 -393h-192l82 393q-349 21 -543 170t-194 481q0 152 32 299h361q-21 -157 -21 -233q0 -194 95 -285.5t331 -132.5l234 1086q-216 54 -362.5 118t-242.5 184.5t-96 311.5q0 84 25 193
q46 217 195 401t365.5 290.5t455.5 106.5l57 262h193l-58 -262q684 -59 684 -602q0 -95 -16 -176z" />
    <glyph glyph-name="percent" unicode="%" horiz-adv-x="3641" 
d="M618 2154q40 191 168 350t309 251t371 92q163 0 292.5 -71t201.5 -197.5t72 -280.5q0 -79 -17 -144q-40 -190 -168.5 -350.5t-310.5 -255t-369 -94.5q-248 0 -406.5 155t-158.5 394q0 80 16 151zM905 2154q-12 -48 -12 -98q0 -144 94 -229.5t238 -85.5q176 0 321 121
t183 292q8 29 8 87q0 139 -92.5 229t-239.5 90q-175 0 -320 -118.5t-180 -287.5zM2228 672q40 191 168 349.5t309 250.5t371 92q163 0 292 -71t201 -197.5t72 -280.5q0 -78 -16 -143q-40 -188 -168 -350.5t-308 -256.5t-368 -94q-249 0 -409 155.5t-160 393.5q0 80 16 152z
M2515 672q-12 -49 -12 -99q0 -144 93.5 -229.5t237.5 -85.5q177 0 322.5 122t181.5 292q8 28 8 86q0 139 -92.5 229t-238.5 90q-175 0 -320 -118.5t-180 -286.5zM3351 2879l-2249 -2957h-221l2244 2957h226z" />
    <glyph glyph-name="ampersand" unicode="&#x26;" horiz-adv-x="2732" 
d="M1831 578l-492 811q-311 -175 -453 -305t-190 -347q-12 -55 -12 -102q0 -135 73.5 -221t175.5 -125t189 -39q399 0 709 328zM1552 1798q193 115 319 229.5t161 278.5q8 33 8 86q0 127 -79.5 182.5t-178.5 55.5q-199 0 -291.5 -101.5t-118.5 -218.5q-8 -48 -8 -74
q0 -186 188 -438zM2253 635l389 -635h-467l-205 336q-207 -194 -423.5 -295.5t-514.5 -101.5q-399 0 -558 183.5t-159 426.5q0 64 17 160q46 211 130.5 358t256.5 281.5t473 285.5q-109 180 -151 280t-42 212q0 58 21 160q35 174 149.5 324t292.5 240.5t393 90.5
q189 0 311 -63.5t178 -170.5t56 -237q0 -45 -16 -135q-40 -190 -150.5 -335.5t-233.5 -235.5t-308 -199l401 -639q132 233 217 458h340q-113 -372 -397 -749z" />
    <glyph glyph-name="quotesingle" unicode="'" horiz-adv-x="782" 
d="M643 1896l225 1045h299l-225 -1045h-299z" />
    <glyph glyph-name="parenleft" unicode="(" horiz-adv-x="1364" 
d="M1610 3002h250q-302 -405 -464 -656t-295.5 -578.5t-232.5 -796.5q-61 -299 -61 -570q0 -282 57 -558t180 -691h-241q-185 413 -273 715t-88 637q0 255 62 565q112 518 381.5 977.5t724.5 955.5z" />
    <glyph glyph-name="parenright" unicode=")" horiz-adv-x="1364" 
d="M213 -848h-250q231 310 361.5 500t245.5 409t209 490t171 633q62 302 62 569q0 199 -29 393.5t-75 379.5t-130 476h242q181 -395 270.5 -703t89.5 -640q0 -278 -65 -574q-109 -518 -377 -975.5t-725 -957.5z" />
    <glyph glyph-name="asterisk" unicode="*" horiz-adv-x="1593" 
d="M676 2421l127 225l397 -156l98 451h246l-98 -451l463 156l37 -225l-476 -140l197 -376l-229 -140l-185 385l-348 -385l-172 140l352 376z" />
    <glyph glyph-name="plus" unicode="+" horiz-adv-x="2392" 
d="M1298 1184l189 884h299l-189 -884h885l-61 -299h-885l-188 -885h-299l188 885h-889l62 299h888z" />
    <glyph glyph-name="comma" unicode="," horiz-adv-x="1139" 
d="M356 0l95 434h426l-86 -401q-75 -355 -245.5 -484.5t-316.5 -150.5l41 188q220 22 303 414h-217z" />
    <glyph glyph-name="hyphen" unicode="-" horiz-adv-x="1364" 
d="M1462 1319l-78 -369h-1003l78 369h1003z" />
    <glyph glyph-name="period" unicode="." horiz-adv-x="1139" 
d="M877 434l-95 -434h-426l95 434h426z" />
    <glyph glyph-name="slash" unicode="/" horiz-adv-x="1139" 
d="M1851 3019l-1663 -3097h-274l1667 3097h270z" />
    <glyph glyph-name="zero" unicode="0" 
d="M2040 1401q69 327 69 561q0 594 -426 594q-202 0 -366.5 -137t-284.5 -396.5t-196 -621.5q-70 -331 -70 -561q0 -594 426 -594q598 0 848 1155zM2425 1401q-74 -352 -227.5 -686.5t-423 -563.5t-652.5 -229q-274 0 -438 121.5t-231.5 322.5t-67.5 453q0 261 66 582
q75 357 227.5 689.5t420.5 560.5t650 228q275 0 440.5 -122.5t233 -325t67.5 -453.5q0 -268 -65 -577z" />
    <glyph glyph-name="one" unicode="1" 
d="M2081 2879l-611 -2879h-385l435 2044h-672l61 287q202 14 325.5 36t222 76.5t180 156.5t161.5 279h283z" />
    <glyph glyph-name="two" unicode="2" 
d="M934 1847h-361q132 612 488 822t725 210q332 0 536.5 -175.5t204.5 -483.5q0 -113 -20 -201q-38 -184 -126.5 -328t-216 -254.5t-267.5 -190.5t-365 -189l-336 -164q-510 -253 -610 -553h1564l-73 -340h-1971q105 423 337 692t581 451l430 221q217 111 336 186.5
t208.5 192.5t127.5 293q12 55 12 114q0 171 -112.5 288.5t-358.5 117.5q-247 0 -400 -122.5t-220 -268.5t-113 -318z" />
    <glyph glyph-name="three" unicode="3" 
d="M1200 1327l66 311q122 -8 188 -8q236 0 414.5 110.5t232.5 360.5q13 47 13 99q0 148 -102 252t-345 104q-333 0 -476 -183t-216 -436h-352q50 242 174.5 453t361 350t590.5 139q356 0 553 -161.5t197 -427.5q0 -68 -21 -168q-53 -251 -197 -399.5t-299 -194.5v-8
q357 -124 357 -484q0 -102 -21 -188q-37 -180 -133 -346.5t-250 -297t-370.5 -206.5t-479.5 -76q-292 0 -503 127q-275 162 -275 569q0 124 21 263h372q-20 -110 -20 -205q0 -430 500 -430q277 0 483.5 154.5t261.5 402.5q17 69 17 139q0 389 -578 389q-26 0 -82 -2t-82 -2z
" />
    <glyph glyph-name="four" unicode="4" 
d="M2290 700h-422l-148 -700h-360l147 700h-1257l78 353l1704 1826h299l-394 -1867h422zM1843 2318l-1192 -1306h926l274 1306h-8z" />
    <glyph glyph-name="five" unicode="5" 
d="M1249 2466l-291 -791q276 180 594 180q209 0 386.5 -83.5t283 -244.5t105.5 -384q0 -93 -25 -209q-74 -360 -370.5 -686t-887.5 -326q-319 0 -544.5 153t-225.5 519q0 31 9 123h372q0 -484 508 -484q274 0 481.5 191t264.5 469q20 102 20 168q0 224 -144.5 347.5
t-379.5 123.5q-323 0 -590 -275l-307 17l545 1544h1491l-74 -352h-1221z" />
    <glyph glyph-name="six" unicode="6" 
d="M2511 2114h-352q0 442 -402 442q-257 0 -450.5 -186.5t-306 -431.5t-156.5 -447l8 -8q116 146 304 249t454 103q170 0 338.5 -68t281.5 -222t113 -390q0 -107 -25 -233q-29 -144 -84.5 -270t-138 -233.5t-207.5 -217.5q-154 -141 -329.5 -210t-456.5 -69
q-193 0 -375.5 99.5t-275.5 318.5q-78 189 -78 438q0 231 69 561q55 261 160 526.5t273 496t409.5 374t546.5 143.5q167 0 326 -61.5t262.5 -202t103.5 -358.5q0 -69 -12 -143zM766 885q-16 -72 -16 -160q0 -206 120.5 -342.5t366.5 -136.5q168 0 315 83t248.5 233.5
t141.5 342.5q16 98 16 152q0 193 -110.5 323.5t-360.5 130.5q-284 0 -473 -177.5t-248 -448.5z" />
    <glyph glyph-name="seven" unicode="7" 
d="M676 2466l74 352h1990l-65 -315q-227 -192 -536.5 -543.5t-634.5 -862.5t-546 -1097h-397q99 293 277 621.5t411 661.5t495.5 640t516.5 543h-1585z" />
    <glyph glyph-name="eight" unicode="8" 
d="M2470 2138q-59 -270 -193 -398.5t-307 -207.5q344 -156 344 -528q0 -83 -20 -173q-52 -242 -201 -449t-396.5 -333.5t-570.5 -126.5q-157 0 -337.5 50.5t-309.5 170.5q-176 167 -176 439q0 118 29 245q105 502 635 701q-287 121 -287 422q0 74 16 139q39 177 159 357
t342 306.5t540 126.5q259 0 428 -84t245 -219t76 -295q0 -53 -16 -143zM1421 1352q-285 0 -472.5 -157.5t-231.5 -375.5q-12 -67 -12 -143q8 -430 503 -430q242 0 435.5 120t257.5 425q16 71 16 147q0 207 -136 310.5t-360 103.5zM1483 1663q231 0 400.5 132t209.5 331
q8 56 8 90q0 143 -103 241.5t-347 98.5q-260 0 -399 -137.5t-179 -313.5q-8 -32 -8 -90q0 -161 119.5 -256.5t298.5 -95.5z" />
    <glyph glyph-name="nine" unicode="9" 
d="M1282 963q-339 0 -538 183.5t-199 500.5q0 125 28 245q89 416 394 701.5t741 285.5q786 0 786 -827q0 -205 -61 -508q-40 -188 -124.5 -439t-244 -524t-417.5 -466t-603 -193q-262 0 -420.5 90t-223 227.5t-64.5 292.5q0 95 16 160h361q-8 -66 -8 -98q0 -177 101 -275
t292 -98q196 0 359 114t302 353.5t260 609.5l-4 9q-111 -160 -317.5 -252t-415.5 -92zM1405 1286q204 0 408 140t284 516q21 107 21 176q0 197 -116 317.5t-355 120.5q-252 0 -444 -179t-253 -468q-24 -117 -24 -209q0 -414 479 -414z" />
    <glyph glyph-name="colon" unicode=":" horiz-adv-x="1139" 
d="M877 434l-95 -434h-426l95 434h426zM1233 2114l-94 -435h-426l94 435h426z" />
    <glyph glyph-name="semicolon" unicode=";" horiz-adv-x="1139" 
d="M356 0l95 434h426l-86 -401q-75 -355 -245.5 -484.5t-316.5 -150.5l41 188q220 22 303 414h-217zM1139 1679h-426l94 435h426z" />
    <glyph glyph-name="less" unicode="&#x3c;" horiz-adv-x="2392" 
d="M2273 373l-69 -328l-1819 848l61 287l2180 848l-70 -328l-1737 -664z" />
    <glyph glyph-name="equal" unicode="=" horiz-adv-x="2392" 
d="M2572 1597l-65 -299h-2073l66 299h2072zM2396 770l-65 -299h-2073l66 299h2072z" />
    <glyph glyph-name="greater" unicode="&#x3e;" horiz-adv-x="2392" 
d="M557 1700l70 328l1818 -848l-61 -287l-2179 -848l69 328l1741 663z" />
    <glyph glyph-name="question" unicode="?" 
d="M1020 2019h-361q44 177 90 298t142.5 244.5t255.5 227.5q280 189 635 189q205 0 367.5 -71t256 -210.5t93.5 -333.5q0 -72 -21 -188q-29 -135 -87.5 -236t-162.5 -202t-278 -238q-188 -150 -274.5 -234t-145 -201t-96.5 -314h-361q50 233 114 368t161.5 238t302.5 274
q191 163 265.5 234.5t115.5 146t65 189.5q12 48 12 106q0 148 -94.5 254t-314.5 106q-544 0 -680 -647zM1393 418l-90 -418h-398l90 418h398z" />
    <glyph glyph-name="at" unicode="@" horiz-adv-x="4157" 
d="M2859 1671q8 58 8 78q0 129 -75 214t-191 85q-172 0 -341.5 -125t-289.5 -313t-155 -361q-13 -53 -13 -110q0 -131 72 -209t199 -78q163 0 332.5 131.5t293.5 325t160 362.5zM3060 2023l135 254h278q-115 -237 -318.5 -640.5t-263 -525.5t-69.5 -169q0 -71 12.5 -95
t49.5 -24q136 0 299.5 130t293 334.5t177.5 420.5q24 123 24 234q0 251 -122 438t-338 286t-486 99q-269 0 -518.5 -100.5t-455.5 -281t-349 -420.5t-201 -509q-28 -137 -28 -278q0 -290 128 -518t364 -355t540 -127q187 0 385 56.5t379 161.5t329 249h275
q-134 -165 -300.5 -299t-352.5 -228t-383 -144t-394 -50q-279 0 -513 89.5t-403.5 254.5t-261 389.5t-91.5 487.5q0 166 37 336q88 419 372.5 773.5t684.5 560.5t814 206q330 0 596.5 -128.5t417 -362.5t150.5 -529q0 -127 -29 -258q-56 -265 -197 -484t-330 -377.5
t-375 -240.5t-327 -82q-209 0 -209 258l-8 -4q-294 -254 -545 -254q-219 0 -349 141.5t-130 358.5q0 84 16 155q61 281 237 543t428 425t523 163q321 0 402 -320z" />
    <glyph glyph-name="A" unicode="A" horiz-adv-x="2732" 
d="M2134 856h-1180l-487 -856h-410l1733 2941h451l438 -2941h-434zM1155 1208h913l-159 1295h-8z" />
    <glyph glyph-name="B" unicode="B" horiz-adv-x="2732" 
d="M1253 2601l-192 -905h717q302 0 482 108.5t234 366.5q13 59 13 110q0 320 -533 320h-721zM303 0l627 2941h1294q340 0 516 -159t176 -415q0 -72 -20 -167q-37 -178 -160 -345t-364 -270q173 -73 287 -184t114 -340q0 -105 -20 -193q-51 -239 -208.5 -437t-410.5 -314.5
t-565 -116.5h-1266zM991 1372l-217 -1032h848q304 0 492.5 143t240.5 394q17 96 17 122q0 373 -598 373h-783z" />
    <glyph glyph-name="C" unicode="C" horiz-adv-x="2957" 
d="M3199 2056h-385q-3 346 -210.5 478t-485.5 132q-203 0 -393.5 -74.5t-352.5 -221.5t-283 -369t-180 -502q-53 -265 -53 -455q0 -770 766 -770q156 0 337.5 66t363.5 246.5t311 494.5h385q-138 -385 -355.5 -626t-447 -354.5t-411 -146t-318.5 -32.5q-292 0 -530 112
t-378.5 354t-140.5 607q0 237 58 492q71 337 225.5 620t376.5 487t501.5 314.5t595.5 110.5q339 0 565.5 -117t334.5 -314t108 -434q0 -65 -4 -98z" />
    <glyph glyph-name="D" unicode="D" horiz-adv-x="2957" 
d="M332 0l626 2941h1192q466 0 720.5 -271.5t254.5 -740.5q0 -216 -45 -418q-54 -262 -176 -529.5t-312.5 -488t-464.5 -357t-620 -136.5h-1175zM1282 2601l-479 -2261h770q395 0 687.5 300t405.5 847q46 199 46 393q0 356 -179 538.5t-510 182.5h-741z" />
    <glyph glyph-name="E" unicode="E" horiz-adv-x="2732" 
d="M2597 352l-74 -352h-2171l627 2941h2142l-78 -352h-1745l-188 -901h1610l-78 -353h-1610l-209 -983h1774z" />
    <glyph glyph-name="F" unicode="F" horiz-adv-x="2503" 
d="M1032 1335l-282 -1335h-398l627 2941h2036l-78 -352h-1639l-188 -901h1442l-78 -353h-1442z" />
    <glyph glyph-name="G" unicode="G" horiz-adv-x="3187" 
d="M1855 1233l74 340h1290l-335 -1573h-258l-13 381q-98 -104 -221 -189t-260.5 -145t-288 -92.5t-299.5 -32.5q-338 0 -523 92.5t-308 239.5q-262 309 -262 745q0 193 65 496q79 376 308 727.5t592.5 574t815.5 222.5q274 0 511.5 -99t383.5 -299t146 -483q0 -61 -4 -90
h-385q-11 346 -228.5 482t-521.5 136q-268 0 -517 -139.5t-433.5 -409.5t-261.5 -642q-54 -242 -54 -439q0 -774 774 -774q361 0 639 189q216 145 327 334.5t165 447.5h-918z" />
    <glyph glyph-name="H" unicode="H" horiz-adv-x="2957" 
d="M2613 1724l262 1217h398l-627 -2941h-397l291 1372h-1536l-291 -1372h-398l627 2941h397l-262 -1217h1536z" />
    <glyph glyph-name="I" unicode="I" horiz-adv-x="1139" 
d="M1397 2941l-627 -2941h-397l626 2941h398z" />
    <glyph glyph-name="J" unicode="J" horiz-adv-x="2048" 
d="M270 946h373l-45 -205q-20 -102 -20 -163q0 -316 364 -316q468 0 578 508l462 2171h398l-459 -2146q-66 -323 -230 -518t-372 -275t-430 -80q-260 0 -416 83t-218 211t-62 276q0 98 16 163z" />
    <glyph glyph-name="K" unicode="K" horiz-adv-x="2732" 
d="M930 1032l-221 -1032h-398l627 2941h397l-303 -1425l1729 1425h549l-1479 -1188l885 -1753h-516l-713 1475z" />
    <glyph glyph-name="L" unicode="L" 
d="M1335 2941l-553 -2589h1491l-73 -352h-1889l627 2941h397z" />
    <glyph glyph-name="M" unicode="M" horiz-adv-x="3412" 
d="M3117 0h-385l369 1737q101 434 164 733h-9l-1351 -2470h-394l-303 2466h-8q-37 -178 -86 -427.5t-61 -301.5l-369 -1737h-385l627 2941h569l311 -2486h9l1363 2486h566z" />
    <glyph glyph-name="N" unicode="N" horiz-adv-x="2957" 
d="M2380 565l508 2376h385l-627 -2941h-446l-992 2376h-8l-504 -2376h-385l627 2941h471l963 -2376h8z" />
    <glyph glyph-name="O" unicode="O" horiz-adv-x="3187" 
d="M2929 1470q37 190 37 345q0 254 -92.5 447t-275 298.5t-439.5 105.5q-236 0 -444.5 -87t-376.5 -248.5t-285 -381t-172 -479.5q-37 -181 -37 -344q0 -254 92 -447t274.5 -299t440.5 -106q235 0 444.5 88t376.5 248.5t284 380t173 479.5zM3338 1470
q-53 -254 -185.5 -524.5t-348.5 -503t-525.5 -376.5t-701.5 -144q-414 0 -671.5 163t-366.5 421.5t-109 566.5q0 197 41 397q55 258 186.5 526t350 502t529 377.5t699.5 143.5q414 0 670.5 -162.5t364.5 -421t108 -563.5q0 -222 -41 -402z" />
    <glyph glyph-name="P" unicode="P" horiz-adv-x="2732" 
d="M1303 2601l-218 -1020h791q600 0 709 528q16 72 16 140q0 352 -492 352h-806zM1012 1241l-262 -1241h-398l627 2941h1323q344 0 530.5 -172t186.5 -459q0 -85 -21 -196q-78 -354 -349 -613.5t-712 -259.5h-925z" />
    <glyph glyph-name="Q" unicode="Q" horiz-adv-x="3187" 
d="M1847 606l254 246l312 -291q128 105 229.5 245t175 309.5t111.5 354.5q37 190 37 345q0 254 -92.5 447t-275 298.5t-439.5 105.5q-236 0 -444.5 -87t-376.5 -248.5t-285 -381t-172 -479.5q-37 -181 -37 -344q0 -254 92 -447t274.5 -299t440.5 -106q247 0 454 95zM3002 8
l-249 -237l-377 348q-348 -197 -799 -197q-414 0 -671.5 163t-366.5 421.5t-109 566.5q0 197 41 397q55 258 186.5 526t350 502t529 377.5t699.5 143.5q414 0 670.5 -162.5t364.5 -421t108 -563.5q0 -222 -41 -402q-29 -144 -85.5 -297.5t-140 -306t-193.5 -292t-248 -255.5
z" />
    <glyph glyph-name="R" unicode="R" horiz-adv-x="2957" 
d="M1024 1262l-266 -1262h-398l627 2941h1360q363 0 593 -135t230 -451q0 -94 -24 -205q-63 -290 -208 -443.5t-353 -260.5q124 -57 189 -129t65 -236q0 -58 -21 -188l-86 -533q-16 -71 -16 -131q0 -103 98 -163l-12 -66h-488q0 79 8.5 180t26.5 230.5t29 195t22 131.5
q25 119 25 193q0 332 -438 332h-963zM1311 2601l-213 -999h921q267 0 455.5 105.5t249.5 401.5q16 77 16 156q0 336 -438 336h-991z" />
    <glyph glyph-name="S" unicode="S" horiz-adv-x="2732" 
d="M2900 2081h-373q13 73 13 123q0 247 -179.5 361t-435.5 114q-115 0 -229 -20t-229 -75t-202.5 -159t-121.5 -262q-13 -54 -13 -90q0 -210 283 -283l799 -193q520 -132 520 -585q0 -108 -20 -201q-52 -247 -193 -422.5t-332.5 -277t-399.5 -145.5t-415 -44
q-362 0 -541.5 80t-285.5 203q-176 192 -176 463q0 125 32 282h373q-20 -102 -20 -168q0 -273 200 -396.5t488 -123.5q293 0 552.5 107.5t319.5 388.5q17 64 17 135q0 149 -117.5 230.5t-415.5 154.5l-569 139q-500 125 -500 533q0 83 16 159q52 241 205 448.5t409.5 334.5
t594.5 127q966 0 966 -709q0 -121 -20 -229z" />
    <glyph glyph-name="T" unicode="T" horiz-adv-x="2503" 
d="M606 2589l78 352h2388l-78 -352h-995l-549 -2589h-397l549 2589h-996z" />
    <glyph glyph-name="U" unicode="U" horiz-adv-x="2957" 
d="M2867 2941h398l-406 -1909q-49 -230 -165 -430t-296.5 -354t-423 -240t-536.5 -86q-472 0 -703 221.5t-231 577.5q0 132 28 258l418 1962h398l-394 -1851q-32 -158 -32 -263q0 -294 171.5 -423.5t430.5 -129.5q202 0 392 73t340.5 254.5t213.5 479.5z" />
    <glyph glyph-name="V" unicode="V" horiz-adv-x="2732" 
d="M1466 434l1364 2507h447l-1700 -2941h-422l-446 2941h442l307 -2507h8z" />
    <glyph glyph-name="W" unicode="W" horiz-adv-x="3867" 
d="M2445 2437l-1196 -2437h-418l-139 2941h430l37 -2392h8l1172 2392h434l147 -2392h9l1061 2392h438l-1401 -2941h-418l-155 2437h-9z" />
    <glyph glyph-name="X" unicode="X" horiz-adv-x="2732" 
d="M1942 1507l712 -1507h-491l-533 1208l-1073 -1208h-479l1372 1507l-680 1434h500l504 -1126l987 1126h475z" />
    <glyph glyph-name="Y" unicode="Y" horiz-adv-x="2732" 
d="M1815 1184l-250 -1184h-398l250 1184l-733 1757h463l541 -1413l1146 1413h467z" />
    <glyph glyph-name="Z" unicode="Z" horiz-adv-x="2503" 
d="M2482 352l-74 -352h-2314l70 332l2281 2257h-1667l78 352h2179l-74 -344l-2289 -2245h1810z" />
    <glyph glyph-name="bracketleft" unicode="[" horiz-adv-x="1139" 
d="M1147 2666l-676 -3178h442l-61 -291h-766l799 3760h766l-62 -291h-442z" />
    <glyph glyph-name="backslash" unicode="\" horiz-adv-x="1139" 
d="M918 -78l-345 3097h271l348 -3097h-274z" />
    <glyph glyph-name="bracketright" unicode="]" horiz-adv-x="1139" 
d="M446 -512l676 3178h-442l61 291h766l-798 -3760h-766l61 291h442z" />
    <glyph glyph-name="asciicircum" unicode="^" horiz-adv-x="1921" 
d="M2208 1081h-316l-401 1409l-999 -1409h-320l1241 1737h295z" />
    <glyph glyph-name="underscore" unicode="_" 
d="M2167 -512h-2278l45 205h2278z" />
    <glyph glyph-name="grave" unicode="`" horiz-adv-x="1364" 
d="M1106 2429l-410 577h443l241 -577h-274z" />
    <glyph glyph-name="a" unicode="a" 
d="M901 1491h-332q93 371 357.5 542t679.5 171q120 0 276.5 -33.5t282 -137.5t125.5 -296q0 -67 -17 -131l-262 -1233q0 -73 22.5 -100t71.5 -27q33 0 123 16l-57 -262q-5 -1 -53 -14.5t-82.5 -20t-69.5 -6.5q-319 0 -319 238q0 32 8 90q-174 -154 -371.5 -251t-476.5 -97
q-254 0 -405.5 130.5t-151.5 348.5q0 74 16 139q46 219 220 421.5t575 250.5l610 74q192 18 242 253q8 58 8 78q0 271 -438 271q-271 0 -392.5 -116.5t-189.5 -297.5zM1729 741l77 353q-59 -38 -183 -67t-439 -69q-125 -16 -228.5 -46.5t-191 -104t-113.5 -197.5
q-12 -61 -12 -114q0 -258 319 -258q167 0 336 67t288.5 183.5t146.5 252.5z" />
    <glyph glyph-name="b" unicode="b" 
d="M578 0h-340l626 2941h361l-230 -1069h9q295 326 688 332q226 0 384 -95.5t237 -267.5t79 -395q0 -166 -33 -311q-63 -292 -210 -562.5t-396.5 -452t-589.5 -181.5q-239 0 -351 96t-169 231h-8zM1974 1077q41 184 41 336q0 467 -454 467q-582 0 -775 -909
q-24 -123 -24 -226q0 -260 140 -377.5t319 -117.5q283 0 477.5 228t275.5 599z" />
    <glyph glyph-name="c" unicode="c" horiz-adv-x="2048" 
d="M2257 1421h-348q0 233 -98.5 346t-311.5 113q-210 0 -368 -117t-254.5 -299.5t-139.5 -390.5q-41 -181 -41 -332q0 -491 451 -491q186 0 354.5 134t263.5 374h349q-42 -138 -126 -282t-210.5 -264.5t-306 -196.5t-402.5 -76q-366 0 -564 209t-198 561q0 162 33 303
q111 528 440.5 860t837.5 332q341 0 494 -181t153 -458q0 -95 -8 -144z" />
    <glyph glyph-name="d" unicode="d" 
d="M2671 2941l-627 -2941h-340l61 295h-8q-265 -356 -684 -356q-388 0 -558.5 231.5t-170.5 587.5q0 182 41 377q63 302 220 546t389 383.5t509 139.5q255 0 374 -107.5t187 -257.5l17 29l229 1073h361zM745 1077q-36 -165 -36 -307q0 -241 109 -380.5t329 -139.5
q132 0 280 66.5t274.5 229t182.5 425.5q49 233 49 401q0 508 -430 508q-363 0 -527 -241t-231 -562z" />
    <glyph glyph-name="e" unicode="e" 
d="M1868 672h360q-36 -115 -169.5 -291.5t-338.5 -294.5q-245 -147 -610 -147q-366 0 -564 209t-198 561q0 162 33 303q111 528 440.5 860t837.5 332q237 0 396.5 -94t238 -271.5t78.5 -429.5q0 -187 -54 -455h-1564q-29 -119 -29 -237q0 -226 126.5 -346.5t373.5 -120.5
q158 0 297.5 69t230.5 168.5t115 184.5zM811 1241h1192q16 124 16 176q0 463 -475 463q-160 0 -316.5 -89.5t-267.5 -236.5t-149 -313z" />
    <glyph glyph-name="f" unicode="f" horiz-adv-x="1139" 
d="M1466 1843h-360l-393 -1843h-361l393 1843h-294l61 299h295l78 369q101 471 659 471q54 0 160 -8l-66 -324q-90 8 -147 8q-115 0 -176 -58.5t-90 -191.5l-58 -266h361z" />
    <glyph glyph-name="g" unicode="g" 
d="M766 1077q-37 -163 -37 -307q0 -241 109 -380.5t329 -139.5q132 0 280.5 66.5t275 229t182.5 425.5q49 243 49 401q0 508 -430 508q-364 0 -527.5 -241t-230.5 -562zM2499 2142l-418 -1966q-55 -255 -155 -479t-360.5 -411t-709.5 -187q-268 0 -476 129.5t-208 509.5h360
q0 -340 414 -340q283 0 444.5 123.5t221.5 273.5t104 357l21 90h-8l-5 -17q-105 -125 -267.5 -205.5t-362.5 -80.5q-388 0 -558.5 231.5t-170.5 587.5q0 182 41 377q64 304 221 547.5t388.5 382.5t508.5 139q255 0 374 -107.5t187 -257.5h8l66 303h340z" />
    <glyph glyph-name="h" unicode="h" 
d="M2322 1458l-311 -1458h-360l299 1401q24 103 24 192q0 143 -79 215t-269 72q-253 0 -461.5 -169.5t-287.5 -543.5l-250 -1167h-361l627 2941h360l-233 -1086h8q144 148 308.5 248.5t392.5 100.5q259 0 438.5 -119.5t179.5 -409.5q0 -96 -25 -217z" />
    <glyph glyph-name="i" unicode="i" horiz-adv-x="909" 
d="M1090 2142l-455 -2142h-361l455 2142h361zM1171 2531h-360l90 410h361z" />
    <glyph glyph-name="j" unicode="j" horiz-adv-x="909" 
d="M1090 2142l-521 -2457q-48 -222 -184 -383.5t-483 -161.5q-68 0 -148 12l66 311h74q167 0 226 44t97 219l512 2416h361zM1262 2941l-91 -410h-360l90 410h361z" />
    <glyph glyph-name="k" unicode="k" horiz-adv-x="2048" 
d="M1470 1343l582 -1343h-463l-438 1081l-356 -270l-172 -811h-349l627 2941h348l-364 -1704l1114 905h459z" />
    <glyph glyph-name="l" unicode="l" horiz-adv-x="909" 
d="M1262 2941l-627 -2941h-361l627 2941h361z" />
    <glyph glyph-name="m" unicode="m" horiz-adv-x="3412" 
d="M266 0l455 2142h340l-66 -303h9q324 365 725 365q251 0 350.5 -103t144.5 -246q208 186 356 267.5t373 81.5q120 0 242.5 -44t208.5 -158.5t86 -309.5q0 -94 -25 -209l-315 -1483h-361l295 1384q25 109 25 197q0 299 -316 299q-145 0 -277.5 -81.5t-225.5 -216
t-123 -275.5l-279 -1307h-360l315 1483q12 61 12 127q0 270 -262 270q-125 0 -267 -63.5t-267 -222t-182 -427.5l-250 -1167h-361z" />
    <glyph glyph-name="n" unicode="n" 
d="M2322 1458l-311 -1458h-360l278 1319q33 148 33 246q0 161 -86 238t-283 77q-125 0 -267 -63.5t-267 -222t-182 -427.5l-250 -1167h-361l455 2142h340l-66 -303h9q324 365 725 365q259 0 438.5 -119.5t179.5 -409.5q0 -96 -25 -217z" />
    <glyph glyph-name="o" unicode="o" 
d="M373 1073q60 289 224 548t424.5 421t584.5 162q205 0 356 -65.5t246.5 -180t141.5 -265t46 -325.5q0 -141 -33 -295q-61 -289 -226.5 -547.5t-426 -420.5t-584.5 -162q-395 0 -590.5 233.5t-195.5 593.5q0 143 33 303zM745 1073q-28 -136 -28 -266q0 -236 107.5 -394.5
t367.5 -158.5q236 0 405 135t261.5 320t132.5 364q28 129 28 262q0 148 -43 273t-150.5 204.5t-285.5 79.5q-341 0 -536 -260t-259 -559z" />
    <glyph glyph-name="p" unicode="p" 
d="M786 971q-24 -123 -24 -226q0 -260 140 -377.5t319 -117.5q283 0 477.5 228t275.5 599q41 184 41 336q0 467 -454 467q-582 0 -775 -909zM57 -848l635 2990h340l-65 -303h8q148 158 306 261.5t411 103.5q226 0 384 -95.5t237 -267.5t79 -395q0 -166 -33 -311
q-63 -292 -210 -562.5t-396.5 -452t-589.5 -181.5q-199 0 -328 81t-180 205h-8l-229 -1073h-361z" />
    <glyph glyph-name="q" unicode="q" 
d="M2478 2142l-635 -2990h-360l229 1073h-8q-105 -125 -267.5 -205.5t-363.5 -80.5q-388 0 -558.5 231.5t-170.5 587.5q0 182 41 377q63 302 220 546t389 383.5t509 139.5q255 0 374 -107.5t187 -257.5h9l65 303h340zM1884 971q49 233 49 401q0 508 -430 508
q-363 0 -527 -241t-231 -562q-36 -165 -36 -307q0 -241 109 -380.5t329 -139.5q132 0 280 66.5t274.5 229t182.5 425.5z" />
    <glyph glyph-name="r" unicode="r" horiz-adv-x="1364" 
d="M942 1245l-266 -1245h-361l455 2142h340l-74 -356h8q329 418 689 418q52 0 94 -13l-82 -372h-135q-162 0 -303.5 -77.5t-236.5 -209.5t-128 -287z" />
    <glyph glyph-name="s" unicode="s" horiz-adv-x="2048" 
d="M2154 1532h-348q9 54 9 86q0 274 -439 274q-142 0 -297.5 -64.5t-193.5 -238.5q-8 -48 -8 -61q0 -87 71.5 -129.5t268.5 -95.5l339 -91q267 -70 383.5 -172.5t116.5 -261.5q0 -41 -16 -131q-45 -213 -189.5 -375t-355.5 -247.5t-455 -85.5q-782 0 -782 553q0 63 21 196
h348q-9 -74 -9 -106q0 -332 484 -332q209 0 368.5 85.5t196.5 254.5q8 40 8 61q0 91 -81.5 140t-286.5 106l-398 102q-397 102 -397 406q0 53 12 115q47 224 191 379t343.5 230t420.5 75q396 0 542 -166.5t146 -378.5q0 -65 -13 -127z" />
    <glyph glyph-name="t" unicode="t" horiz-adv-x="1139" 
d="M1446 1843h-344l-299 -1392q0 -109 53 -138.5t131 -29.5h127l-61 -283q-84 -8 -168 -18.5t-107 -10.5q-360 0 -360 291q0 73 20 168l303 1413h-290l61 299h291l127 598h360l-127 -598h344z" />
    <glyph glyph-name="u" unicode="u" 
d="M2003 0h-340l66 311l-5 8q-161 -195 -337 -287.5t-424 -92.5q-239 0 -408.5 115.5t-169.5 371.5q0 71 21 176l327 1540h361l-303 -1421q-21 -100 -21 -160q0 -311 336 -311q212 0 367 106.5t246 268t128 338.5l250 1179h361z" />
    <glyph glyph-name="v" unicode="v" horiz-adv-x="2048" 
d="M1102 397l975 1745h393l-1270 -2142h-385l-328 2142h418l189 -1745h8z" />
    <glyph glyph-name="w" unicode="w" horiz-adv-x="2957" 
d="M1819 1659l-770 -1659h-373l-164 2142h393l53 -1683h9l770 1683h401l62 -1683h8l790 1683h361l-1078 -2142h-372l-82 1659h-8z" />
    <glyph glyph-name="x" unicode="x" horiz-adv-x="2048" 
d="M1487 1102l520 -1102h-459l-360 807l-688 -807h-455l987 1102l-495 1040h462l336 -753l656 753h442z" />
    <glyph glyph-name="y" unicode="y" horiz-adv-x="2048" 
d="M1118 397l942 1745h398q-823 -1447 -1217 -2101q-225 -372 -334.5 -535.5t-205 -249t-197 -109.5t-295.5 -24q-37 0 -148 33l70 328q95 -37 209 -37q97 0 153 31.5t122.5 126.5t211.5 338l-327 2199h409l201 -1745h8z" />
    <glyph glyph-name="z" unicode="z" horiz-adv-x="2048" 
d="M2277 1847l-1605 -1548h1315l-66 -299h-1794l61 283l1622 1560h-1192l62 299h1659z" />
    <glyph glyph-name="braceleft" unicode="{" horiz-adv-x="1368" 
d="M377 958l49 246q142 0 270 149.5t172 370.5l152 705q50 240 205.5 384t322.5 144h275l-54 -266h-180q-188 0 -262 -336l-147 -696q-71 -259 -224 -403t-260 -171v-8q84 -24 167 -129.5t83 -308.5q0 -67 -12 -147l-148 -693q-20 -95 -20 -159q0 -177 135 -177h180
l-57 -266h-274q-137 0 -228.5 101t-91.5 276q0 80 16 152l148 700q20 110 20 184q0 160 -64 254t-173 94z" />
    <glyph glyph-name="bar" unicode="|" horiz-adv-x="1065" 
d="M369 -78l659 3097h299l-659 -3097h-299z" />
    <glyph glyph-name="braceright" unicode="}" horiz-adv-x="1368" 
d="M1450 1204l-49 -246q-143 0 -270.5 -151.5t-176.5 -380.5l-147 -700q-35 -159 -120.5 -280.5t-195.5 -185t-217 -63.5h-274l57 266h181q185 0 262 336l147 693q40 149 105 257t139 178t135 104t104 46v8q-80 21 -164.5 131.5t-84.5 307.5q0 61 12 135l147 696
q21 94 21 160q0 176 -135 176h-181l54 266h274q138 0 231 -102t93 -279q0 -78 -17 -147l-151 -705q-21 -107 -21 -172q0 -157 65 -252.5t177 -95.5z" />
    <glyph glyph-name="asciitilde" unicode="~" horiz-adv-x="2392" 
d="M2277 1335l99 -229q-293 -352 -586 -352q-172 0 -389 135q-222 143 -438 143q-209 0 -410 -295l-98 230q260 352 585 352q159 0 430 -131q291 -148 385 -148q110 0 205.5 77t216.5 218z" />
    <glyph glyph-name="Ccedilla" unicode="&#x201a;" horiz-adv-x="909" 
d="M217 0l94 434h426l-86 -401q-55 -256 -187.5 -422t-377.5 -221l41 192q230 34 307 418h-217z" />
    <glyph glyph-name="Ntilde" unicode="&#x201e;" horiz-adv-x="1364" 
d="M106 0l95 434h426l-86 -401q-57 -259 -188.5 -423.5t-377.5 -219.5l41 192q147 22 211.5 140.5t96.5 277.5h-218zM782 0l95 434h426l-86 -401q-58 -260 -189.5 -424t-376.5 -219l41 192q230 34 307 418h-217z" />
    <glyph glyph-name="Odieresis" unicode="&#x2026;" horiz-adv-x="4096" 
d="M991 434l-94 -434h-426l94 434h426zM2355 434l-94 -434h-426l94 434h426zM3719 434l-94 -434h-426l94 434h426z" />
    <glyph glyph-name="Udieresis" unicode="&#x2020;" 
d="M1712 1765l-516 -2416h-385l516 2416h-774l65 312h775l184 864h385l-184 -864h770l-66 -312h-770z" />
    <glyph glyph-name="aacute" unicode="&#x2021;" 
d="M1716 1798l-278 -1311h770l-66 -311h-770l-176 -827h-385l176 827h-774l66 311h774l278 1311h-774l66 311h774l180 832h385l-180 -832h770l-66 -311h-770z" />
    <glyph glyph-name="acircumflex" unicode="&#x2030;" horiz-adv-x="4096" 
d="M500 2208q35 172 152 320t283 233.5t339 85.5q230 0 373 -143t143 -365q0 -63 -12 -131q-39 -174 -156.5 -321t-283 -232.5t-339.5 -85.5q-229 0 -372.5 139.5t-143.5 359.5q0 76 17 140zM758 2208q-8 -58 -8 -82q0 -131 84 -215t223 -84q157 0 293.5 112t169.5 269
q8 56 8 78q0 133 -86.5 218t-224.5 85q-161 0 -294 -112t-165 -269zM1438 610q35 174 152 321t283 232.5t339 85.5q230 0 373 -143t143 -365q0 -63 -12 -131q-38 -173 -154.5 -320t-281 -233t-338.5 -86q-151 0 -270 64t-185 178t-66 258q0 75 17 139zM1696 610
q-8 -56 -8 -82q0 -131 84 -215t223 -84q157 0 293.5 112t169.5 269q8 58 8 78q0 133 -86.5 218t-225.5 85q-161 0 -293.5 -112t-164.5 -269zM2925 610q35 174 152.5 321.5t282.5 232.5t339 85q230 0 373 -143t143 -365q0 -66 -13 -131q-39 -176 -155 -321.5t-281 -231.5
t-338 -86q-151 0 -269.5 64t-184.5 178t-66 258q0 75 17 139zM3183 610q-9 -50 -9 -82q0 -131 85 -215t223 -84q156 0 292.5 112t169.5 269q9 52 9 78q0 133 -86.5 218t-225.5 85q-161 0 -293.5 -112t-164.5 -269zM2839 2879l-2253 -2957h-226l2253 2957h226z" />
    <glyph glyph-name="atilde" unicode="&#x2039;" horiz-adv-x="1364" 
d="M1176 803l-78 -361l-537 504l82 377l750 504l-78 -361l-500 -331z" />
    <glyph glyph-name="edieresis" unicode="&#x2018;" horiz-adv-x="909" 
d="M1192 2359l-90 -434h-426l86 402q112 542 561 643l-41 -193q-144 -21 -204.5 -132.5t-102.5 -285.5h217z" />
    <glyph glyph-name="iacute" unicode="&#x2019;" horiz-adv-x="909" 
d="M750 2507l94 434h426l-86 -401q-57 -259 -188 -424t-378 -220l41 193q147 22 211.5 141t96.5 277h-217z" />
    <glyph glyph-name="igrave" unicode="&#x201c;" horiz-adv-x="1364" 
d="M1757 2359l-90 -434h-426l86 402q54 259 184.5 423.5t376.5 219.5l-41 -193q-144 -21 -204.5 -132.5t-102.5 -285.5h217zM1081 2359l-90 -434h-426l86 402q54 259 184.5 423.5t376.5 219.5l-41 -193q-144 -21 -204.5 -132.5t-102.5 -285.5h217z" />
    <glyph glyph-name="icircumflex" unicode="&#x201d;" horiz-adv-x="1364" 
d="M639 2507l94 434h426l-86 -401q-37 -167 -103.5 -297t-181 -220t-280.5 -127l41 193q145 22 210 141t97 277h-217zM1315 2507l94 434h426l-86 -401q-57 -259 -188 -424t-377 -220l41 193q145 22 210 141t97 277h-217z" />
    <glyph glyph-name="idieresis" unicode="&#x2022;" horiz-adv-x="1434" 
d="M1675 1470q-36 -175 -154.5 -323t-286 -234t-341.5 -86q-231 0 -375.5 143t-144.5 365q0 67 12 135q39 176 156 324.5t283.5 236t342.5 87.5q232 0 378.5 -145.5t146.5 -366.5q0 -76 -17 -136z" />
    <glyph glyph-name="ntilde" unicode="&#x2013;" 
d="M2552 1282l-66 -299h-2277l65 299h2278z" />
    <glyph glyph-name="oacute" unicode="&#x2014;" horiz-adv-x="4096" 
d="M4370 1282l-65 -299h-4096l65 299h4096z" />
    <glyph glyph-name="ocircumflex" unicode="&#x2122;" horiz-adv-x="4096" 
d="M2908 2941l217 -1241l742 1241h458l-360 -1688h-299l291 1373h-8l-820 -1373h-204l-238 1373h-8l-291 -1373h-299l360 1688h459zM2154 2941l-53 -246h-520l-307 -1442h-299l307 1442h-520l53 246h1339z" />
    <glyph glyph-name="otilde" unicode="&#x203a;" horiz-adv-x="1364" 
d="M455 442l77 361l500 332l-360 331l78 361l536 -504l-82 -377z" />
    <glyph glyph-name="sterling" unicode="&#xa3;" horiz-adv-x="2048" 
d="M270 946h373l-45 -205q-20 -102 -20 -163q0 -316 364 -316q468 0 578 508l462 2171h398l-459 -2146q-66 -323 -230 -518t-372 -275t-430 -80q-260 0 -416 83t-218 211t-62 276q0 98 16 163z" />
    <glyph glyph-name="section" unicode="&#xa4;" 
d="M2490 2470l156 -197l-274 -221q102 -157 102 -385q0 -114 -25 -229q-79 -363 -335 -619l172 -229l-226 -184l-176 237q-286 -225 -655 -225q-364 0 -565 225l-275 -237l-143 184l270 229q-98 155 -98 385q0 117 24 234q75 375 332 614l-176 221l238 197l184 -229
q283 208 639 208q353 0 549 -208zM741 1438q-16 -72 -16 -156q0 -247 157 -412t408 -165q193 0 375.5 100.5t312 269t172.5 363.5q17 64 17 147q0 161 -72 292.5t-201.5 208.5t-296.5 77q-191 0 -373.5 -100.5t-312.5 -268t-170 -356.5z" />
    <glyph glyph-name="paragraph" unicode="&#xa6;" horiz-adv-x="1065" 
d="M369 -78l254 1204h299l-254 -1204h-299zM786 1884l242 1135h299l-242 -1135h-299z" />
    <glyph glyph-name="germandbls" unicode="&#xa7;" 
d="M2367 2269h-348l6.5 51t6.5 88q0 299 -328 299q-144 0 -277 -82t-170 -249q-8 -42 -8 -58q0 -157 230 -311l524 -352q154 -104 239 -222t85 -282q0 -75 -17 -152q-50 -233 -194.5 -382.5t-366.5 -272.5q127 -173 127 -340q0 -59 -12 -127q-43 -201 -185 -351t-331.5 -229
t-368.5 -79q-309 0 -488.5 136t-179.5 417q0 102 25 217h360q-16 -74 -16 -148q0 -311 319 -311q164 0 312 73t188 267q8 50 8 65q0 135 -164 259l-737 573q-176 138 -176 373q0 53 16 127q51 240 185 385t360 262q-114 172 -114 295q0 52 12 114q33 165 143.5 325.5
t300 266t441.5 105.5q256 0 437 -121.5t181 -411.5q0 -96 -25 -217zM1782 1315l-619 438q-306 -142 -360 -397q-12 -55 -12 -99q0 -154 122 -249l668 -500q162 92 252.5 182.5t120.5 231.5q8 56 8 82q0 180 -180 311z" />
    <glyph glyph-name="registered" unicode="&#xa8;" horiz-adv-x="2732" 
d="M2216 0h-2171l627 2941h2142l-78 -352h-1745l-188 -901h1610l-78 -353h-1610l-209 -983h1774zM1692 3273h-373l90 417h373zM2355 3273h-373l91 417h372z" />
    <glyph glyph-name="copyright" unicode="&#xa9;" horiz-adv-x="3019" 
d="M1499 -78q-366 0 -658 154t-456 431.5t-164 631.5q0 166 37 336q69 326 253.5 610.5t445.5 493t574.5 324.5t627.5 116q364 0 655 -154.5t454.5 -432.5t163.5 -630q0 -156 -36 -327q-70 -328 -254.5 -614t-447.5 -497.5t-572 -326.5t-623 -115zM569 1475
q-32 -165 -32 -299q0 -291 126.5 -518t358 -352.5t530.5 -125.5q344 0 669.5 168t555 464.5t307.5 662.5q33 154 33 286q0 290 -127.5 518t-359.5 355t-529 127q-348 0 -673 -168t-553.5 -463t-305.5 -655zM2302 1184h278q-120 -302 -368.5 -481t-532.5 -179
q-346 0 -539.5 198.5t-193.5 518.5q0 117 25 238q57 273 210.5 487.5t384.5 336.5t502 122q292 0 463.5 -160.5t171.5 -482.5h-274q0 113 -50 197t-143.5 129.5t-220.5 45.5q-187 0 -339 -87t-253 -240.5t-141 -343.5q-20 -103 -20 -176q0 -147 54.5 -263.5t161 -182.5
t259.5 -66q192 0 347.5 108t217.5 281z" />
    <glyph glyph-name="acute" unicode="&#xab;" 
d="M1212 803l-77 -361l-537 504l82 377l750 504l-78 -361l-500 -331zM2052 803l-78 -361l-536 504l82 377l749 504l-78 -361l-499 -331z" />
    <glyph glyph-name="dieresis" unicode="&#xac;" horiz-adv-x="2392" 
d="M2028 442l180 856h-1774l66 299h2072l-245 -1155h-299z" />
    <glyph glyph-name="notequal" unicode="&#xad;" horiz-adv-x="1364" 
d="M1917 2802l-49 -234h-1282l49 234h1282z" />
    <glyph glyph-name="AE" unicode="&#xae;" horiz-adv-x="3019" 
d="M1499 -78q-366 0 -658 154t-456 431.5t-164 631.5q0 166 37 336q69 326 253.5 610.5t445.5 493t574.5 324.5t627.5 116q364 0 655 -154.5t454.5 -432.5t163.5 -630q0 -156 -36 -327q-70 -328 -254.5 -614t-447.5 -497.5t-572 -326.5t-623 -115zM569 1475
q-32 -165 -32 -299q0 -291 126.5 -518t358 -352.5t530.5 -125.5q344 0 669.5 168t555 464.5t307.5 662.5q33 154 33 286q0 290 -127.5 518t-359.5 355t-529 127q-348 0 -673 -168t-553.5 -463t-305.5 -655zM1475 1352l-164 -774h-271l381 1785h680q272 0 404.5 -87
t132.5 -273q0 -77 -17 -148q-45 -225 -196.5 -344t-368.5 -147l340 -786h-303l-307 774h-311zM1524 1581h323q216 0 337 53t159 238q8 48 8 65q0 197 -340 197h-369z" />
    <glyph glyph-name="Oslash" unicode="&#xaf;" horiz-adv-x="1139" 
d="M1397 2941l-627 -2941h-397l626 2941h398zM1040 3690l-90 -417h-372l90 417h372zM1704 3690l-90 -417h-373l90 417h373z" />
    <glyph glyph-name="infinity" unicode="&#xb0;" horiz-adv-x="1638" 
d="M1393 2703q-107 0 -211.5 -59.5t-180.5 -157.5t-100 -205q-8 -56 -8 -81q0 -140 90 -240t229 -100q107 0 212 59.5t181 156.5t99 205q8 29 8 86q0 139 -90.5 237.5t-228.5 98.5zM1901 2281q-34 -166 -142 -303.5t-262.5 -216t-320.5 -78.5q-219 0 -351.5 129.5
t-132.5 337.5q0 66 13 131q56 256 263 427t462 171q144 0 255 -59t171.5 -164t60.5 -239q0 -44 -16 -136z" />
    <glyph glyph-name="plusminus" unicode="&#xb1;" horiz-adv-x="2392" 
d="M1348 1413l143 660h299l-143 -660h884l-61 -299h-885l-139 -659h-299l139 659h-889l62 299h889zM160 0l65 299h2073l-66 -299h-2072z" />
    <glyph glyph-name="lessequal" unicode="&#xb2;" horiz-adv-x="1139" 
d="M1397 2941l-627 -2941h-397l626 2941h398z" />
    <glyph glyph-name="greaterequal" unicode="&#xb3;" horiz-adv-x="909" 
d="M1090 2142l-455 -2142h-361l455 2142h361zM1171 2531h-360l90 410h361z" />
    <glyph glyph-name="mu" unicode="&#xb5;" 
d="M2003 0h-340l66 311l-5 8q-161 -195 -337 -287.5t-424 -92.5q-221 0 -299 139h-9l-196 -926h-361l308 1450l327 1540h361l-303 -1421q-21 -100 -21 -160q0 -311 336 -311q212 0 367 106.5t246 268t128 338.5l250 1179h361z" />
    <glyph glyph-name="partialdiff" unicode="&#xb6;" horiz-adv-x="2200" 
d="M799 -709l450 2118q-337 0 -535 167.5t-198 434.5q0 80 16 152q84 393 376 585.5t739 192.5h1015l-778 -3650h-299l725 3404h-487l-725 -3404h-299z" />
    <glyph glyph-name="summation" unicode="&#xb7;" horiz-adv-x="1139" 
d="M848 1290q87 0 144 -67t57 -191q-22 -101 -115 -177.5t-201 -76.5q-92 0 -144 66t-52 188q21 111 113.5 184.5t197.5 73.5z" />
    <glyph glyph-name="product" unicode="&#xb8;" 
d="M1253 2474h-372l90 418h372zM1917 2474h-373l90 418h373zM1962 672q-21 -66 -84.5 -170.5t-173 -219t-250.5 -196.5q-247 -147 -610 -147q-366 0 -564 209t-198 561q0 162 33 303q111 528 440.5 860t837.5 332q237 0 396.5 -94t237.5 -271.5t78 -429.5q0 -192 -53 -455
h-1565q-28 -120 -28 -237q0 -467 499 -467q158 0 297.5 69t231 169.5t115.5 183.5h360zM1737 1241q16 124 16 176q0 463 -475 463q-160 0 -317 -89.5t-268.5 -238t-147.5 -311.5h1192z" />
    <glyph glyph-name="pi" unicode="&#xb9;" horiz-adv-x="1495" 
d="M1892 2339q-52 -251 -177.5 -403t-285 -214.5t-327.5 -62.5q-225 0 -377 111.5t-152 363.5q0 89 25 205q53 249 179.5 401t286.5 215.5t329 63.5q223 0 373.5 -109.5t150.5 -361.5q0 -94 -25 -209zM1618 2339q20 82 20 164q0 303 -290 303q-214 0 -324.5 -143.5
t-151.5 -323.5q-16 -90 -16 -156q0 -311 291 -311q148 0 248 76t151 181t72 210zM451 1442h1212l-41 -197h-1212z" />
    <glyph glyph-name="ordfeminine" unicode="&#xbb;" 
d="M1241 946l-749 -504l77 361l500 332l-360 331l77 361l537 -504zM2081 946l-750 -504l78 361l500 332l-361 331l78 361l537 -504z" />
    <glyph glyph-name="ordmasculine" unicode="&#xbc;" horiz-adv-x="909" 
d="M1090 2142l-521 -2457q-48 -222 -184 -383.5t-483 -161.5q-68 0 -148 12l66 311h74q167 0 226 44t97 219l512 2416h361zM1262 2941l-91 -410h-360l90 410h361z" />
    <glyph glyph-name="Omega" unicode="&#xbd;" horiz-adv-x="2732" 
d="M2900 2081h-373q13 73 13 123q0 247 -179.5 361t-435.5 114q-115 0 -229 -20t-229 -75t-202.5 -159t-121.5 -262q-13 -54 -13 -90q0 -210 283 -283l799 -193q520 -132 520 -585q0 -108 -20 -201q-52 -247 -193 -422.5t-332.5 -277t-399.5 -145.5t-415 -44
q-362 0 -541.5 80t-285.5 203q-176 192 -176 463q0 125 32 282h373q-20 -102 -20 -168q0 -273 200 -396.5t488 -123.5q293 0 552.5 107.5t319.5 388.5q17 64 17 135q0 149 -117.5 230.5t-415.5 154.5l-569 139q-500 125 -500 533q0 83 16 159q52 241 205 448.5t409.5 334.5
t594.5 127q966 0 966 -709q0 -121 -20 -229z" />
    <glyph glyph-name="ae" unicode="&#xbe;" horiz-adv-x="2048" 
d="M2154 1532h-348q9 54 9 86q0 274 -439 274q-142 0 -297.5 -64.5t-193.5 -238.5q-8 -48 -8 -61q0 -87 71.5 -129.5t268.5 -95.5l339 -91q267 -70 383.5 -172.5t116.5 -261.5q0 -41 -16 -131q-45 -213 -189.5 -375t-355.5 -247.5t-455 -85.5q-782 0 -782 553q0 63 21 196
h348q-9 -74 -9 -106q0 -332 484 -332q209 0 368.5 85.5t196.5 254.5q8 40 8 61q0 91 -81.5 140t-286.5 106l-398 102q-397 102 -397 406q0 53 12 115q47 224 191 379t343.5 230t420.5 75q396 0 542 -166.5t146 -378.5q0 -65 -13 -127z" />
    <glyph glyph-name="oslash" unicode="&#xbf;" horiz-adv-x="1139" 
d="M1204 2142l-454 -2142h-361l455 2142h360zM1040 2892l-90 -418h-372l90 418h372zM1704 2892l-90 -418h-373l90 418h373z" />
    <glyph glyph-name="questiondown" unicode="&#xc0;" horiz-adv-x="2732" 
d="M684 856l-487 -856h-410l1733 2941h450l438 -2941h-434l-110 856h-1180zM1798 1208l-160 1295h-8l-745 -1295h913z" />
    <glyph glyph-name="questiondown" unicode="&#x410;" horiz-adv-x="2732" 
d="M684 856l-487 -856h-410l1733 2941h450l438 -2941h-434l-110 856h-1180zM1798 1208l-160 1295h-8l-745 -1295h913z" />
    <glyph glyph-name="exclamdown" unicode="&#xc1;" horiz-adv-x="2732" 
d="M991 2589l-188 -889h971q373 0 553 -179.5t180 -463.5q0 -114 -25 -221q-48 -232 -213 -423.5t-396.5 -302t-459.5 -110.5h-1368l627 2941h2072l-78 -352h-1675zM516 340h873q264 0 448.5 120.5t239.5 379.5q20 102 20 159q0 198 -130.5 279.5t-377.5 81.5h-856z" />
    <glyph glyph-name="exclamdown" unicode="&#x411;" horiz-adv-x="2732" 
d="M991 2589l-188 -889h971q373 0 553 -179.5t180 -463.5q0 -114 -25 -221q-48 -232 -213 -423.5t-396.5 -302t-459.5 -110.5h-1368l627 2941h2072l-78 -352h-1675zM516 340h873q264 0 448.5 120.5t239.5 379.5q20 102 20 159q0 198 -130.5 279.5t-377.5 81.5h-856z" />
    <glyph glyph-name="logicalnot" unicode="&#xc2;" horiz-adv-x="2732" 
d="M672 2941h1294q340 0 516 -159t176 -415q0 -72 -20 -167q-37 -178 -160 -345t-364 -270q173 -73 287 -184t114 -340q0 -107 -21 -193q-36 -176 -134.5 -333.5t-252 -278.5t-357 -188.5t-439.5 -67.5h-1266zM803 1696h717q302 0 482 108.5t234 366.5q13 59 13 110
q0 320 -533 320h-721zM516 340h848q304 0 492.5 143t240.5 394q17 96 17 122q0 373 -598 373h-783z" />
    <glyph glyph-name="logicalnot" unicode="&#x412;" horiz-adv-x="2732" 
d="M672 2941h1294q340 0 516 -159t176 -415q0 -72 -20 -167q-37 -178 -160 -345t-364 -270q173 -73 287 -184t114 -340q0 -107 -21 -193q-36 -176 -134.5 -333.5t-252 -278.5t-357 -188.5t-439.5 -67.5h-1266zM803 1696h717q302 0 482 108.5t234 366.5q13 59 13 110
q0 320 -533 320h-721zM516 340h848q304 0 492.5 143t240.5 394q17 96 17 122q0 373 -598 373h-783z" />
    <glyph glyph-name="radical" unicode="&#xc3;" 
d="M442 4h-397l627 2937h1929l-78 -352h-1532z" />
    <glyph glyph-name="radical" unicode="&#x413;" 
d="M442 4h-397l627 2937h1929l-78 -352h-1532z" />
    <glyph glyph-name="florin" unicode="&#xc4;" horiz-adv-x="2732" 
d="M164 0l-115 -549h-360l188 901h197q263 320 364 795l381 1794h1962l-553 -2589h226l-189 -901h-360l114 549h-1855zM451 352h1380l475 2237h-1188l-303 -1442q-95 -450 -364 -795z" />
    <glyph glyph-name="florin" unicode="&#x414;" horiz-adv-x="2732" 
d="M164 0l-115 -549h-360l188 901h197q263 320 364 795l381 1794h1962l-553 -2589h226l-189 -901h-360l114 549h-1855zM451 352h1380l475 2237h-1188l-303 -1442q-95 -450 -364 -795z" />
    <glyph glyph-name="approxequal" unicode="&#xc5;" horiz-adv-x="2732" 
d="M2216 0h-2171l627 2941h2142l-78 -352h-1745l-188 -901h1610l-78 -353h-1610l-209 -983h1774z" />
    <glyph glyph-name="approxequal" unicode="&#x415;" horiz-adv-x="2732" 
d="M2216 0h-2171l627 2941h2142l-78 -352h-1745l-188 -901h1610l-78 -353h-1610l-209 -983h1774z" />
    <glyph glyph-name="Delta" unicode="&#xc6;" horiz-adv-x="4092" 
d="M1987 0h-398l221 1032l-278 418l-1217 -1450h-516l1508 1729l-848 1212h549l905 -1425l303 1425h397l-303 -1425l1512 1425h548l-1364 -1212l771 -1729h-517l-602 1450l-450 -418z" />
    <glyph glyph-name="Delta" unicode="&#x416;" horiz-adv-x="4092" 
d="M1987 0h-398l221 1032l-278 418l-1217 -1450h-516l1508 1729l-848 1212h549l905 -1425l303 1425h397l-303 -1425l1512 1425h548l-1364 -1212l771 -1729h-517l-602 1450l-450 -418z" />
    <glyph glyph-name="guillemotleft" unicode="&#xc7;" horiz-adv-x="2732" 
d="M1425 1700q283 0 530.5 118.5t293.5 335.5q12 69 12 123q0 225 -179 309.5t-419 84.5q-139 0 -274 -31t-259.5 -102t-215 -186.5t-132.5 -278.5h-372q41 201 187.5 414t443 368.5t737.5 155.5q266 0 465 -80.5t307 -231t108 -348.5q0 -91 -16 -168q-60 -279 -263 -426.5
t-409 -187.5q121 -19 242 -91.5t199.5 -195.5t78.5 -283q0 -41 -16 -139q-50 -237 -189 -418t-330.5 -294.5t-410 -169.5t-434.5 -56q-573 0 -794.5 245.5t-221.5 573.5q0 123 21 209h372q-20 -102 -20 -172q0 -272 203 -394t510 -122q170 0 360.5 61t338 193.5t189.5 327.5
q13 59 13 110q0 235 -216.5 337t-533.5 102q-176 0 -291 -9l70 324q102 -8 315 -8z" />
    <glyph glyph-name="guillemotleft" unicode="&#x417;" horiz-adv-x="2732" 
d="M1425 1700q283 0 530.5 118.5t293.5 335.5q12 69 12 123q0 225 -179 309.5t-419 84.5q-139 0 -274 -31t-259.5 -102t-215 -186.5t-132.5 -278.5h-372q41 201 187.5 414t443 368.5t737.5 155.5q266 0 465 -80.5t307 -231t108 -348.5q0 -91 -16 -168q-60 -279 -263 -426.5
t-409 -187.5q121 -19 242 -91.5t199.5 -195.5t78.5 -283q0 -41 -16 -139q-50 -237 -189 -418t-330.5 -294.5t-410 -169.5t-434.5 -56q-573 0 -794.5 245.5t-221.5 573.5q0 123 21 209h372q-20 -102 -20 -172q0 -272 203 -394t510 -122q170 0 360.5 61t338 193.5t189.5 327.5
q13 59 13 110q0 235 -216.5 337t-533.5 102q-176 0 -291 -9l70 324q102 -8 315 -8z" />
    <glyph glyph-name="guillemotright" unicode="&#xc8;" horiz-adv-x="2957" 
d="M549 565h8l1978 2376h471l-626 -2941h-385l504 2376h-9l-1998 -2376h-447l627 2941h385z" />
    <glyph glyph-name="guillemotright" unicode="&#x418;" horiz-adv-x="2957" 
d="M549 565h8l1978 2376h471l-626 -2941h-385l504 2376h-9l-1998 -2376h-447l627 2941h385z" />
    <glyph glyph-name="ellipsis" unicode="&#xc9;" horiz-adv-x="2957" 
d="M549 565h8l1978 2376h471l-626 -2941h-385l504 2376h-9l-1998 -2376h-447l627 2941h385zM2589 3469q-182 -557 -770 -557q-496 0 -496 451q0 78 4 106h201q11 -135 57 -196q82 -127 316 -127q214 0 316 89.5t175 233.5h197z" />
    <glyph glyph-name="ellipsis" unicode="&#x419;" horiz-adv-x="2957" 
d="M549 565h8l1978 2376h471l-626 -2941h-385l504 2376h-9l-1998 -2376h-447l627 2941h385zM2589 3469q-182 -557 -770 -557q-496 0 -496 451q0 78 4 106h201q11 -135 57 -196q82 -127 316 -127q214 0 316 89.5t175 233.5h197z" />
    <glyph glyph-name="nonbreakingspace" unicode="&#xca;" horiz-adv-x="2732" 
d="M442 0h-397l627 2941h397l-303 -1425l1728 1425h549l-1478 -1188l884 -1753h-516l-712 1475l-557 -443z" />
    <glyph glyph-name="nonbreakingspace" unicode="&#x41a;" horiz-adv-x="2732" 
d="M442 0h-397l627 2941h397l-303 -1425l1728 1425h549l-1478 -1188l884 -1753h-516l-712 1475l-557 -443z" />
    <glyph glyph-name="Agrave" unicode="&#xcb;" horiz-adv-x="2732" 
d="M1122 2589l-381 -1794q-54 -258 -156 -430t-233 -263.5t-274 -125t-299 -33.5l78 356q239 0 348.5 128t159.5 368l458 2146h1966l-626 -2941h-398l549 2589h-1192z" />
    <glyph glyph-name="Agrave" unicode="&#x41b;" horiz-adv-x="2732" 
d="M1122 2589l-381 -1794q-54 -258 -156 -430t-233 -263.5t-274 -125t-299 -33.5l78 356q239 0 348.5 128t159.5 368l458 2146h1966l-626 -2941h-398l549 2589h-1192z" />
    <glyph glyph-name="Atilde" unicode="&#xcc;" horiz-adv-x="3412" 
d="M2478 0l369 1737q48 225 96.5 437.5t67.5 295.5h-9l-1351 -2470h-394l-303 2466h-8q8 0 -147 -729l-369 -1737h-385l627 2941h569l311 -2486h9l1364 2486h565l-627 -2941h-385z" />
    <glyph glyph-name="Atilde" unicode="&#x41c;" horiz-adv-x="3412" 
d="M2478 0l369 1737q48 225 96.5 437.5t67.5 295.5h-9l-1351 -2470h-394l-303 2466h-8q8 0 -147 -729l-369 -1737h-385l627 2941h569l311 -2486h9l1364 2486h565l-627 -2941h-385z" />
    <glyph glyph-name="Otilde" unicode="&#xcd;" horiz-adv-x="2957" 
d="M2605 2941h397l-626 -2941h-398l291 1372h-1536l-291 -1372h-397l627 2941h397l-262 -1217h1536z" />
    <glyph glyph-name="Otilde" unicode="&#x41d;" horiz-adv-x="2957" 
d="M2605 2941h397l-626 -2941h-398l291 1372h-1536l-291 -1372h-397l627 2941h397l-262 -1217h1536z" />
    <glyph glyph-name="OE" unicode="&#xce;" horiz-adv-x="3187" 
d="M1311 -78q-411 0 -665.5 160.5t-363 419t-110.5 563.5q0 208 45 405q77 360 289 714.5t584 594.5t880 240q409 0 662.5 -160.5t362 -417.5t110.5 -561q0 -206 -45 -410q-54 -257 -183.5 -525.5t-344 -501t-522 -377t-699.5 -144.5zM1892 2666q-313 0 -578 -153
t-445.5 -425.5t-254.5 -617.5q-36 -183 -36 -344q0 -254 92 -447t274.5 -299t439.5 -106q235 0 444.5 88t378 250t285.5 382.5t170 475.5q37 182 37 345q0 390 -209.5 620.5t-597.5 230.5z" />
    <glyph glyph-name="OE" unicode="&#x41e;" horiz-adv-x="3187" 
d="M1311 -78q-411 0 -665.5 160.5t-363 419t-110.5 563.5q0 208 45 405q77 360 289 714.5t584 594.5t880 240q409 0 662.5 -160.5t362 -417.5t110.5 -561q0 -206 -45 -410q-54 -257 -183.5 -525.5t-344 -501t-522 -377t-699.5 -144.5zM1892 2666q-313 0 -578 -153
t-445.5 -425.5t-254.5 -617.5q-36 -183 -36 -344q0 -254 92 -447t274.5 -299t439.5 -106q235 0 444.5 88t378 250t285.5 382.5t170 475.5q37 182 37 345q0 390 -209.5 620.5t-597.5 230.5z" />
    <glyph glyph-name="oe" unicode="&#xcf;" horiz-adv-x="2957" 
d="M3002 2941l-626 -2941h-398l549 2589h-1536l-549 -2589h-397l627 2941h2330z" />
    <glyph glyph-name="oe" unicode="&#x41f;" horiz-adv-x="2957" 
d="M3002 2941l-626 -2941h-398l549 2589h-1536l-549 -2589h-397l627 2941h2330z" />
    <glyph glyph-name="emdash" unicode="&#xd0;" horiz-adv-x="2732" 
d="M442 -4h-397l623 2941h1368q343 0 530 -171.5t187 -455.5q0 -109 -21 -201q-74 -352 -345 -612t-712 -260h-970zM778 1577h836q600 0 708 528q17 71 17 140q0 352 -492 352h-852z" />
    <glyph glyph-name="emdash" unicode="&#x420;" horiz-adv-x="2732" 
d="M442 -4h-397l623 2941h1368q343 0 530 -171.5t187 -455.5q0 -109 -21 -201q-74 -352 -345 -612t-712 -260h-970zM778 1577h836q600 0 708 528q17 71 17 140q0 352 -492 352h-852z" />
    <glyph glyph-name="endash" unicode="&#xd1;" horiz-adv-x="2957" 
d="M2548 2056q-3 346 -210.5 478t-486.5 132q-204 0 -393.5 -74.5t-351.5 -221.5t-283 -369t-180 -502q-53 -257 -53 -455q0 -770 766 -770q156 0 337.5 66t364 246.5t309.5 494.5h386q-138 -385 -355.5 -626t-447 -354.5t-411 -146t-318.5 -32.5q-293 0 -530.5 112
t-378 354t-140.5 607q0 242 57 492q73 339 227 621t376 486t501.5 314.5t595.5 110.5q339 0 565.5 -117t334.5 -314t108 -434q0 -65 -4 -98h-385z" />
    <glyph glyph-name="endash" unicode="&#x421;" horiz-adv-x="2957" 
d="M2548 2056q-3 346 -210.5 478t-486.5 132q-204 0 -393.5 -74.5t-351.5 -221.5t-283 -369t-180 -502q-53 -257 -53 -455q0 -770 766 -770q156 0 337.5 66t364 246.5t309.5 494.5h386q-138 -385 -355.5 -626t-447 -354.5t-411 -146t-318.5 -32.5q-293 0 -530.5 112
t-378 354t-140.5 607q0 242 57 492q73 339 227 621t376 486t501.5 314.5t595.5 110.5q339 0 565.5 -117t334.5 -314t108 -434q0 -65 -4 -98h-385z" />
    <glyph glyph-name="quotedblleft" unicode="&#xd2;" horiz-adv-x="2503" 
d="M418 2941h2388l-78 -352h-995l-549 -2589h-398l549 2589h-995z" />
    <glyph glyph-name="quotedblleft" unicode="&#x422;" horiz-adv-x="2503" 
d="M418 2941h2388l-78 -352h-995l-549 -2589h-398l549 2589h-995z" />
    <glyph glyph-name="quotedblright" unicode="&#xd3;" horiz-adv-x="2732" 
d="M786 -49q-49 -12 -131 -12q-137 6 -258 45l78 364q88 -57 189 -57q160 0 262 143l250 352l-746 2155h496l553 -1720l1114 1720h454l-1765 -2593q-236 -343 -496 -397z" />
    <glyph glyph-name="quotedblright" unicode="&#x423;" horiz-adv-x="2732" 
d="M786 -49q-49 -12 -131 -12q-137 6 -258 45l78 364q88 -57 189 -57q160 0 262 143l250 352l-746 2155h496l553 -1720l1114 1720h454l-1765 -2593q-236 -343 -496 -397z" />
    <glyph glyph-name="quoteleft" unicode="&#xd4;" horiz-adv-x="3412" 
d="M2200 2634q287 0 505.5 -70.5t358 -194.5t209 -290.5t69.5 -358.5q0 -99 -28 -250q-47 -228 -177 -438t-338.5 -376t-484 -259.5t-610.5 -93.5l-66 -303h-393l66 303q-380 0 -638.5 123t-381.5 331.5t-123 467.5q0 126 25 245q51 233 182 442.5t336 373t483 258t612 94.5
l66 303h393zM2134 2327l-365 -1713q282 0 516 89.5t396 282.5t223 484q29 119 29 238q0 211 -100 349.5t-278 204t-421 65.5zM1376 614l365 1713q-282 0 -516 -89.5t-397.5 -282.5t-225.5 -485q-24 -121 -24 -229q0 -213 99 -354t277.5 -207t421.5 -66z" />
    <glyph glyph-name="quoteleft" unicode="&#x424;" horiz-adv-x="3412" 
d="M2200 2634q287 0 505.5 -70.5t358 -194.5t209 -290.5t69.5 -358.5q0 -99 -28 -250q-47 -228 -177 -438t-338.5 -376t-484 -259.5t-610.5 -93.5l-66 -303h-393l66 303q-380 0 -638.5 123t-381.5 331.5t-123 467.5q0 126 25 245q51 233 182 442.5t336 373t483 258t612 94.5
l66 303h393zM2134 2327l-365 -1713q282 0 516 89.5t396 282.5t223 484q29 119 29 238q0 211 -100 349.5t-278 204t-421 65.5zM1376 614l365 1713q-282 0 -516 -89.5t-397.5 -282.5t-225.5 -485q-24 -121 -24 -229q0 -213 99 -354t277.5 -207t421.5 -66z" />
    <glyph glyph-name="quoteright" unicode="&#xd5;" horiz-adv-x="2732" 
d="M2388 0h-492l-544 1208l-1061 -1208h-479l1359 1507l-679 1434h499l500 -1126l995 1126h475l-1302 -1434z" />
    <glyph glyph-name="quoteright" unicode="&#x425;" horiz-adv-x="2732" 
d="M2388 0h-492l-544 1208l-1061 -1208h-479l1359 1507l-679 1434h499l500 -1126l995 1126h475l-1302 -1434z" />
    <glyph glyph-name="divide" unicode="&#xd6;" horiz-adv-x="2957" 
d="M2241 0h-2196l627 2941h397l-553 -2589h1536l553 2589h397l-553 -2589h226l-189 -901h-360z" />
    <glyph glyph-name="divide" unicode="&#x426;" horiz-adv-x="2957" 
d="M2241 0h-2196l627 2941h397l-553 -2589h1536l553 2589h397l-553 -2589h226l-189 -901h-360z" />
    <glyph glyph-name="lozenge" unicode="&#xd7;" horiz-adv-x="2957" 
d="M2605 2941h397l-626 -2941h-398l291 1372q-153 -58 -480 -145.5t-650 -87.5q-713 0 -713 561q0 86 29 233l217 1008h397l-209 -971q-12 -61 -12 -119q0 -331 487 -331q271 0 568 76.5t440 127.5z" />
    <glyph glyph-name="lozenge" unicode="&#x427;" horiz-adv-x="2957" 
d="M2605 2941h397l-626 -2941h-398l291 1372q-153 -58 -480 -145.5t-650 -87.5q-713 0 -713 561q0 86 29 233l217 1008h397l-209 -971q-12 -61 -12 -119q0 -331 487 -331q271 0 568 76.5t440 127.5z" />
    <glyph glyph-name="ydieresis" unicode="&#xd8;" horiz-adv-x="3490" 
d="M1733 352h823l553 2589h397l-627 -2941h-2834l627 2941h397l-553 -2589h819l553 2589h398z" />
    <glyph glyph-name="ydieresis" unicode="&#x428;" horiz-adv-x="3490" 
d="M1733 352h823l553 2589h397l-627 -2941h-2834l627 2941h397l-553 -2589h819l553 2589h398z" />
    <glyph glyph-name="Ydieresis" unicode="&#xd9;" horiz-adv-x="3490" 
d="M2744 0h-2699l627 2941h397l-553 -2589h819l553 2589h398l-553 -2589h823l553 2589h397l-553 -2589h225l-188 -901h-360z" />
    <glyph glyph-name="Ydieresis" unicode="&#x429;" horiz-adv-x="3490" 
d="M2744 0h-2699l627 2941h397l-553 -2589h819l553 2589h398l-553 -2589h823l553 2589h397l-553 -2589h225l-188 -901h-360z" />
    <glyph glyph-name="fraction" unicode="&#xda;" horiz-adv-x="2957" 
d="M1028 1700h971q251 0 410.5 -89.5t231 -237t71.5 -329.5q0 -108 -25 -217q-51 -236 -199.5 -425t-370 -295.5t-479.5 -106.5h-1368l553 2605h-540l73 336h938zM741 340h852q582 0 684 491q21 100 21 160q0 369 -504 369h-836z" />
    <glyph glyph-name="fraction" unicode="&#x42a;" horiz-adv-x="2957" 
d="M1028 1700h971q251 0 410.5 -89.5t231 -237t71.5 -329.5q0 -108 -25 -217q-51 -236 -199.5 -425t-370 -295.5t-479.5 -106.5h-1368l553 2605h-540l73 336h938zM741 340h852q582 0 684 491q21 100 21 160q0 369 -504 369h-836z" />
    <glyph glyph-name="currency" unicode="&#xdb;" horiz-adv-x="3564" 
d="M803 1700h926q251 0 410.5 -89.5t230.5 -237t71 -329.5q0 -112 -24 -217q-51 -238 -196.5 -426t-366.5 -294.5t-486 -106.5h-1323l627 2941h397zM2986 0h-397l626 2941h398zM516 340h807q581 0 684 491q21 108 21 160q0 369 -504 369h-791z" />
    <glyph glyph-name="currency" unicode="&#x42b;" horiz-adv-x="3564" 
d="M803 1700h926q251 0 410.5 -89.5t230.5 -237t71 -329.5q0 -112 -24 -217q-51 -238 -196.5 -426t-366.5 -294.5t-486 -106.5h-1323l627 2941h397zM2986 0h-397l626 2941h398zM516 340h807q581 0 684 491q21 108 21 160q0 369 -504 369h-791z" />
    <glyph glyph-name="guilsinglleft" unicode="&#xdc;" horiz-adv-x="2732" 
d="M803 1700h971q251 0 410.5 -89.5t230.5 -237t71 -329.5q0 -112 -24 -217q-51 -238 -196.5 -426t-366.5 -294.5t-486 -106.5h-1368l627 2941h397zM516 340h852q581 0 684 491q21 108 21 160q0 369 -504 369h-836z" />
    <glyph glyph-name="guilsinglleft" unicode="&#x42c;" horiz-adv-x="2732" 
d="M803 1700h971q251 0 410.5 -89.5t230.5 -237t71 -329.5q0 -112 -24 -217q-51 -238 -196.5 -426t-366.5 -294.5t-486 -106.5h-1368l627 2941h397zM516 340h852q581 0 684 491q21 108 21 160q0 369 -504 369h-836z" />
    <glyph glyph-name="guilsinglright" unicode="&#xdd;" horiz-adv-x="2957" 
d="M2449 1667q13 101 13 193q0 392 -186.5 599t-530.5 207q-293 0 -562 -131.5t-429 -478.5h-385q104 258 305 477.5t495.5 352.5t653.5 133q340 0 577 -133.5t356 -378.5t119 -574q0 -208 -49 -446q-114 -534 -373.5 -888t-594.5 -515.5t-687 -161.5q-119 0 -288.5 35.5
t-348.5 140.5t-303.5 317.5t-124.5 542.5h386q0 -258 120.5 -411.5t289 -213t323.5 -59.5q449 0 734.5 285.5t420.5 775.5h-1606l74 332h1601z" />
    <glyph glyph-name="guilsinglright" unicode="&#x42d;" horiz-adv-x="2957" 
d="M2449 1667q13 101 13 193q0 392 -186.5 599t-530.5 207q-293 0 -562 -131.5t-429 -478.5h-385q104 258 305 477.5t495.5 352.5t653.5 133q340 0 577 -133.5t356 -378.5t119 -574q0 -208 -49 -446q-114 -534 -373.5 -888t-594.5 -515.5t-687 -161.5q-119 0 -288.5 35.5
t-348.5 140.5t-303.5 317.5t-124.5 542.5h386q0 -258 120.5 -411.5t289 -213t323.5 -59.5q449 0 734.5 285.5t420.5 775.5h-1606l74 332h1601z" />
    <glyph glyph-name="fi" unicode="&#xde;" horiz-adv-x="3944" 
d="M1102 1372h-369l-291 -1372h-397l627 2941h397l-262 -1217h373q87 242 225.5 470.5t334.5 413.5t463.5 298t594.5 113q569 0 817 -319t248 -795q0 -219 -46 -435q-53 -256 -182 -525.5t-340 -501.5t-513 -376.5t-685 -144.5q-372 0 -600.5 159t-324 411.5t-95.5 556.5
q0 173 25 323zM2720 2666q-299 0 -544.5 -152t-411.5 -423t-240 -621q-41 -185 -41 -372q0 -246 83 -432.5t248 -289t398 -102.5q297 0 542.5 152t412.5 424.5t241 619.5q41 187 41 373q0 246 -83 432.5t-247 288.5t-399 102z" />
    <glyph glyph-name="fi" unicode="&#x42e;" horiz-adv-x="3944" 
d="M1102 1372h-369l-291 -1372h-397l627 2941h397l-262 -1217h373q87 242 225.5 470.5t334.5 413.5t463.5 298t594.5 113q569 0 817 -319t248 -795q0 -219 -46 -435q-53 -256 -182 -525.5t-340 -501.5t-513 -376.5t-685 -144.5q-372 0 -600.5 159t-324 411.5t-95.5 556.5
q0 173 25 323zM2720 2666q-299 0 -544.5 -152t-411.5 -423t-240 -621q-41 -185 -41 -372q0 -246 83 -432.5t248 -289t398 -102.5q297 0 542.5 152t412.5 424.5t241 619.5q41 187 41 373q0 246 -83 432.5t-247 288.5t-399 102z" />
    <glyph glyph-name="fl" unicode="&#xdf;" horiz-adv-x="2957" 
d="M2208 1262h-602l-1155 -1262h-521l1188 1266q-267 0 -471.5 157t-204.5 478q0 99 25 233q61 293 234.5 474t406.5 257t498 76h1360l-627 -2941h-397zM2494 2601h-991q-528 0 -635 -492q-16 -71 -16 -147q0 -360 508 -360h921z" />
    <glyph glyph-name="fl" unicode="&#x42f;" horiz-adv-x="2957" 
d="M2208 1262h-602l-1155 -1262h-521l1188 1266q-267 0 -471.5 157t-204.5 478q0 99 25 233q61 293 234.5 474t406.5 257t498 76h1360l-627 -2941h-397zM2494 2601h-991q-528 0 -635 -492q-16 -71 -16 -147q0 -360 508 -360h921z" />
    <glyph glyph-name="daggerdbl" unicode="&#xe0;" 
d="M303 1491q93 371 357.5 542t678.5 171q121 0 277 -33.5t281.5 -137.5t125.5 -296q0 -66 -16 -131l-262 -1233q0 -73 22.5 -100t71.5 -27q33 0 123 16l-57 -262q-5 -1 -53 -14.5t-82.5 -20t-69.5 -6.5q-320 0 -320 238q0 38 9 90q-172 -152 -370.5 -250t-477.5 -98
q-254 0 -405.5 130.5t-151.5 348.5q0 74 16 139q46 219 220 421.5t575 250.5l610 74q192 18 242 253q8 58 8 78q0 271 -438 271q-270 0 -392 -117t-190 -297h-332zM1540 1094q-111 -71 -622 -136q-473 -61 -533 -348q-12 -61 -12 -114q0 -258 319 -258q167 0 336 67t288 183
t146 253z" />
    <glyph glyph-name="daggerdbl" unicode="&#x430;" 
d="M303 1491q93 371 357.5 542t678.5 171q121 0 277 -33.5t281.5 -137.5t125.5 -296q0 -66 -16 -131l-262 -1233q0 -73 22.5 -100t71.5 -27q33 0 123 16l-57 -262q-5 -1 -53 -14.5t-82.5 -20t-69.5 -6.5q-320 0 -320 238q0 38 9 90q-172 -152 -370.5 -250t-477.5 -98
q-254 0 -405.5 130.5t-151.5 348.5q0 74 16 139q46 219 220 421.5t575 250.5l610 74q192 18 242 253q8 58 8 78q0 271 -438 271q-270 0 -392 -117t-190 -297h-332zM1540 1094q-111 -71 -622 -136q-473 -61 -533 -348q-12 -61 -12 -114q0 -258 319 -258q167 0 336 67t288 183
t146 253z" />
    <glyph glyph-name="periodcentered" unicode="&#xe1;" 
d="M2114 2945h253q-4 -47 -39 -138.5t-133 -164.5q-119 -89 -369 -114t-490 -53t-390 -136q-142 -103 -224.5 -239t-156.5 -302h13q199 186 366 265t445 79q242 0 407 -111.5t245.5 -298t80.5 -413.5q0 -148 -29 -279q-60 -284 -225.5 -536t-432 -408.5t-604.5 -156.5
q-191 0 -360.5 83.5t-277 273t-107.5 490.5q0 191 49 435q52 233 114 434t165.5 402.5t255 372t366.5 290.5q234 131 840 131h123q95 11 115 94zM1720 1040q25 112 25 226q0 234 -108 399.5t-371 165.5q-343 0 -537.5 -261t-253.5 -530q-24 -114 -24 -225q0 -232 108 -398.5
t371 -166.5q239 0 407 138.5t259.5 321t123.5 330.5z" />
    <glyph glyph-name="periodcentered" unicode="&#x431;" 
d="M2114 2945h253q-4 -47 -39 -138.5t-133 -164.5q-119 -89 -369 -114t-490 -53t-390 -136q-142 -103 -224.5 -239t-156.5 -302h13q199 186 366 265t445 79q242 0 407 -111.5t245.5 -298t80.5 -413.5q0 -148 -29 -279q-60 -284 -225.5 -536t-432 -408.5t-604.5 -156.5
q-191 0 -360.5 83.5t-277 273t-107.5 490.5q0 191 49 435q52 233 114 434t165.5 402.5t255 372t366.5 290.5q234 131 840 131h123q95 11 115 94zM1720 1040q25 112 25 226q0 234 -108 399.5t-371 165.5q-343 0 -537.5 -261t-253.5 -530q-24 -114 -24 -225q0 -232 108 -398.5
t371 -166.5q239 0 407 138.5t259.5 321t123.5 330.5z" />
    <glyph glyph-name="quotesinglbase" unicode="&#xe2;" horiz-adv-x="2261" 
d="M467 2142h1053q536 0 536 -397q0 -45 -16 -143q-26 -131 -137 -264t-322 -208q171 -47 282 -126t111 -259q0 -52 -12 -114q-40 -182 -147 -322.5t-300.5 -224.5t-474.5 -84h-1028zM635 1241h528q158 0 259.5 31t160.5 104.5t88 204.5q8 58 8 78q0 99 -84 141.5t-297 42.5
h-532zM438 299h647q242 0 358.5 79.5t153.5 260.5q13 48 13 90q0 121 -103.5 173t-343.5 52h-585z" />
    <glyph glyph-name="quotesinglbase" unicode="&#x432;" horiz-adv-x="2261" 
d="M467 2142h1053q536 0 536 -397q0 -45 -16 -143q-26 -131 -137 -264t-322 -208q171 -47 282 -126t111 -259q0 -52 -12 -114q-40 -182 -147 -322.5t-300.5 -224.5t-474.5 -84h-1028zM635 1241h528q158 0 259.5 31t160.5 104.5t88 204.5q8 58 8 78q0 99 -84 141.5t-297 42.5
h-532zM438 299h647q242 0 358.5 79.5t153.5 260.5q13 48 13 90q0 121 -103.5 173t-343.5 52h-585z" />
    <glyph glyph-name="quotedblbase" unicode="&#xe3;" horiz-adv-x="1667" 
d="M766 1843l-393 -1843h-361l455 2142h1393l-62 -299h-1032z" />
    <glyph glyph-name="quotedblbase" unicode="&#x433;" horiz-adv-x="1667" 
d="M766 1843l-393 -1843h-361l455 2142h1393l-62 -299h-1032z" />
    <glyph glyph-name="perthousand" unicode="&#xe4;" horiz-adv-x="2109" 
d="M53 0l-114 -549h-320l180 848h148q53 26 129.5 148.5t107.5 261.5l303 1433h1532l-389 -1843h193l-181 -848h-319l115 549h-1385zM1270 299l327 1544h-831l-242 -1134q-58 -262 -229 -410h975z" />
    <glyph glyph-name="perthousand" unicode="&#x434;" horiz-adv-x="2109" 
d="M53 0l-114 -549h-320l180 848h148q53 26 129.5 148.5t107.5 261.5l303 1433h1532l-389 -1843h193l-181 -848h-319l115 549h-1385zM1270 299l327 1544h-831l-242 -1134q-58 -262 -229 -410h975z" />
    <glyph glyph-name="Acircumflex" unicode="&#xe5;" 
d="M1962 672q-21 -66 -84.5 -170.5t-173 -219t-250.5 -196.5q-247 -147 -610 -147q-366 0 -564 209t-198 561q0 162 33 303q111 528 440.5 860t837.5 332q237 0 396.5 -94t237.5 -271.5t78 -429.5q0 -192 -53 -455h-1565q-28 -120 -28 -237q0 -467 499 -467q158 0 297.5 69
t231 169.5t115.5 183.5h360zM1737 1241q16 124 16 176q0 463 -475 463q-160 0 -317 -89.5t-268.5 -238t-147.5 -311.5h1192z" />
    <glyph glyph-name="Acircumflex" unicode="&#x435;" 
d="M1962 672q-21 -66 -84.5 -170.5t-173 -219t-250.5 -196.5q-247 -147 -610 -147q-366 0 -564 209t-198 561q0 162 33 303q111 528 440.5 860t837.5 332q237 0 396.5 -94t237.5 -271.5t78 -429.5q0 -192 -53 -455h-1565q-28 -120 -28 -237q0 -467 499 -467q158 0 297.5 69
t231 169.5t115.5 183.5h360zM1737 1241q16 124 16 176q0 463 -475 463q-160 0 -317 -89.5t-268.5 -238t-147.5 -311.5h1192z" />
    <glyph glyph-name="Ecircumflex" unicode="&#xe6;" horiz-adv-x="2957" 
d="M1839 2142l-192 -905l991 905h459l-1049 -880l643 -1262h-463l-495 999l-177 -188l-172 -811h-348l172 811l-94 188l-921 -999h-463l1175 1262l-672 880h459l606 -905l193 905h348z" />
    <glyph glyph-name="Ecircumflex" unicode="&#x436;" horiz-adv-x="2957" 
d="M1839 2142l-192 -905l991 905h459l-1049 -880l643 -1262h-463l-495 999l-177 -188l-172 -811h-348l172 811l-94 188l-921 -999h-463l1175 1262l-672 880h459l606 -905l193 905h348z" />
    <glyph glyph-name="Aacute" unicode="&#xe7;" horiz-adv-x="2048" 
d="M991 1253q210 0 355.5 80t177.5 236q12 49 12 94q0 242 -377 242q-498 0 -586 -394h-340q31 142 124.5 292.5t315.5 269t580 118.5q209 0 358 -64.5t223.5 -173.5t74.5 -237q0 -61 -8 -94q-51 -247 -192 -343.5t-320 -131.5q413 -66 413 -393q0 -59 -12 -127
q-71 -325 -357.5 -504.5t-662.5 -179.5q-442 0 -610 169.5t-168 403.5q0 63 20 176h340q-16 -65 -16 -139q0 -170 124 -245t367 -75q508 0 590 390q13 58 13 98q0 162 -137 218t-380 56q-54 -2 -134 -4t-136 -4l57 270q55 0 155 -2t136 -2z" />
    <glyph glyph-name="Aacute" unicode="&#x437;" horiz-adv-x="2048" 
d="M991 1253q210 0 355.5 80t177.5 236q12 49 12 94q0 242 -377 242q-498 0 -586 -394h-340q31 142 124.5 292.5t315.5 269t580 118.5q209 0 358 -64.5t223.5 -173.5t74.5 -237q0 -61 -8 -94q-51 -247 -192 -343.5t-320 -131.5q413 -66 413 -393q0 -59 -12 -127
q-71 -325 -357.5 -504.5t-662.5 -179.5q-442 0 -610 169.5t-168 403.5q0 63 20 176h340q-16 -65 -16 -139q0 -170 124 -245t367 -75q508 0 590 390q13 58 13 98q0 162 -137 218t-380 56q-54 -2 -134 -4t-136 -4l57 270q55 0 155 -2t136 -2z" />
    <glyph glyph-name="Edieresis" unicode="&#xe8;" 
d="M487 537h9l1257 1605h438l-454 -2142h-361l340 1606h-8l-1278 -1606h-418l455 2142h360z" />
    <glyph glyph-name="Edieresis" unicode="&#x438;" 
d="M487 537h9l1257 1605h438l-454 -2142h-361l340 1606h-8l-1278 -1606h-418l455 2142h360z" />
    <glyph glyph-name="Egrave" unicode="&#xe9;" 
d="M487 537h9l1257 1605h438l-454 -2142h-361l340 1606h-8l-1278 -1606h-418l455 2142h360zM2142 2994q-176 -557 -770 -557q-495 0 -495 451q0 78 4 106h200q4 -25 9.5 -60.5t17 -71t31.5 -64.5q89 -127 319 -127q216 0 316.5 89.5t171.5 233.5h196z" />
    <glyph glyph-name="Egrave" unicode="&#x439;" 
d="M487 537h9l1257 1605h438l-454 -2142h-361l340 1606h-8l-1278 -1606h-418l455 2142h360zM2142 2994q-176 -557 -770 -557q-495 0 -495 451q0 78 4 106h200q4 -25 9.5 -60.5t17 -71t31.5 -64.5q89 -127 319 -127q216 0 316.5 89.5t171.5 233.5h196z" />
    <glyph glyph-name="Iacute" unicode="&#xea;" horiz-adv-x="2048" 
d="M1786 0h-463l-578 999l-217 -188l-172 -811h-348l455 2142h348l-193 -905l1115 905h458l-1130 -880z" />
    <glyph glyph-name="Iacute" unicode="&#x43a;" horiz-adv-x="2048" 
d="M1786 0h-463l-578 999l-217 -188l-172 -811h-348l455 2142h348l-193 -905l1115 905h458l-1130 -880z" />
    <glyph glyph-name="Icircumflex" unicode="&#xeb;" horiz-adv-x="2109" 
d="M766 1843l-270 -1265q-33 -145 -108 -280t-227 -233t-386 -98l73 332q145 0 208 55t100 224l331 1564h1532l-454 -2142h-361l393 1843h-831z" />
    <glyph glyph-name="Icircumflex" unicode="&#x43b;" horiz-adv-x="2109" 
d="M766 1843l-270 -1265q-33 -145 -108 -280t-227 -233t-386 -98l73 332q145 0 208 55t100 224l331 1564h1532l-454 -2142h-361l393 1843h-831z" />
    <glyph glyph-name="Idieresis" unicode="&#xec;" horiz-adv-x="2957" 
d="M1315 459l1016 1683h536l-454 -2142l-349 -4l263 1245q31 139 66 270t52 189h-28l-1033 -1700h-344l-311 1700h-29q-6 -55 -24.5 -181.5t-52.5 -277.5l-263 -1241h-348l455 2142h537z" />
    <glyph glyph-name="Idieresis" unicode="&#x43c;" horiz-adv-x="2957" 
d="M1315 459l1016 1683h536l-454 -2142l-349 -4l263 1245q31 139 66 270t52 189h-28l-1033 -1700h-344l-311 1700h-29q-6 -55 -24.5 -181.5t-52.5 -277.5l-263 -1241h-348l455 2142h537z" />
    <glyph glyph-name="Igrave" unicode="&#xed;" 
d="M1831 2142h360l-454 -2142h-361l205 971h-1003l-205 -971h-361l455 2142h360l-188 -885h1003z" />
    <glyph glyph-name="Igrave" unicode="&#x43d;" 
d="M1831 2142h360l-454 -2142h-361l205 971h-1003l-205 -971h-361l455 2142h360l-188 -885h1003z" />
    <glyph glyph-name="Oacute" unicode="&#xee;" 
d="M1339 2204q398 0 594.5 -235.5t196.5 -600.5q0 -141 -33 -295q-63 -290 -227.5 -548t-425 -420t-584.5 -162q-395 0 -590.5 233.5t-195.5 593.5q0 140 32 303q59 287 224.5 548t425 422t583.5 161zM926 254q236 0 405 135t262.5 321t130.5 363q29 126 29 262
q0 148 -43 273t-150.5 204.5t-285.5 79.5q-341 0 -536 -260t-259 -559q-28 -136 -28 -266q0 -236 107.5 -394.5t367.5 -158.5z" />
    <glyph glyph-name="Oacute" unicode="&#x43e;" 
d="M1339 2204q398 0 594.5 -235.5t196.5 -600.5q0 -141 -33 -295q-63 -290 -227.5 -548t-425 -420t-584.5 -162q-395 0 -590.5 233.5t-195.5 593.5q0 140 32 303q59 287 224.5 548t425 422t583.5 161zM926 254q236 0 405 135t262.5 321t130.5 363q29 126 29 262
q0 148 -43 273t-150.5 204.5t-285.5 79.5q-341 0 -536 -260t-259 -559q-28 -136 -28 -266q0 -236 107.5 -394.5t367.5 -158.5z" />
    <glyph glyph-name="Ocircumflex" unicode="&#xef;" 
d="M2191 2142l-454 -2142h-361l393 1843h-1003l-393 -1843h-361l455 2142h1724z" />
    <glyph glyph-name="Ocircumflex" unicode="&#x43f;" 
d="M2191 2142l-454 -2142h-361l393 1843h-1003l-393 -1843h-361l455 2142h1724z" />
    <glyph glyph-name="apple" unicode="&#xf0;" 
d="M459 2142h340l-66 -303h8q148 158 306 261.5t411 103.5q226 0 384.5 -96t237.5 -267.5t79 -394.5q0 -160 -33 -311q-63 -287 -210.5 -560t-396 -454.5t-589.5 -181.5q-200 0 -328 80.5t-180 205.5h-8l-230 -1073h-360zM987 250q283 0 478.5 229t275.5 598q41 193 41 336
q0 467 -455 467q-581 0 -774 -909q-25 -128 -25 -226q0 -260 140 -377.5t319 -117.5z" />
    <glyph glyph-name="apple" unicode="&#x440;" 
d="M459 2142h340l-66 -303h8q148 158 306 261.5t411 103.5q226 0 384.5 -96t237.5 -267.5t79 -394.5q0 -160 -33 -311q-63 -287 -210.5 -560t-396 -454.5t-589.5 -181.5q-200 0 -328 80.5t-180 205.5h-8l-230 -1073h-360zM987 250q283 0 478.5 229t275.5 598q41 193 41 336
q0 467 -455 467q-581 0 -774 -909q-25 -128 -25 -226q0 -260 140 -377.5t319 -117.5z" />
    <glyph glyph-name="Ograve" unicode="&#xf1;" horiz-adv-x="2048" 
d="M1642 1421q0 235 -98 347t-311 112q-211 0 -368.5 -116.5t-254 -299.5t-139.5 -391q-41 -174 -41 -332q0 -491 451 -491q185 0 354 134.5t264 373.5h348q-60 -193 -190 -380t-346.5 -313t-507.5 -126q-366 0 -564 209t-198 561q0 162 33 303q111 528 440.5 860t837.5 332
q341 0 494 -181t153 -458q0 -95 -8 -144h-349z" />
    <glyph glyph-name="Ograve" unicode="&#x441;" horiz-adv-x="2048" 
d="M1642 1421q0 235 -98 347t-311 112q-211 0 -368.5 -116.5t-254 -299.5t-139.5 -391q-41 -174 -41 -332q0 -491 451 -491q185 0 354 134.5t264 373.5h348q-60 -193 -190 -380t-346.5 -313t-507.5 -126q-366 0 -564 209t-198 561q0 162 33 303q111 528 440.5 860t837.5 332
q341 0 494 -181t153 -458q0 -95 -8 -144h-349z" />
    <glyph glyph-name="Uacute" unicode="&#xf2;" horiz-adv-x="1819" 
d="M1217 1843l-394 -1843h-360l393 1843h-684l61 299h1729l-61 -299h-684z" />
    <glyph glyph-name="Uacute" unicode="&#x442;" horiz-adv-x="1819" 
d="M1217 1843l-394 -1843h-360l393 1843h-684l61 299h1729l-61 -299h-684z" />
    <glyph glyph-name="Ucircumflex" unicode="&#xf3;" horiz-adv-x="2048" 
d="M1794 2142h397q-132 -232 -378 -664.5t-456.5 -793t-381.5 -643.5q-225 -372 -334.5 -535.5t-205 -249t-197 -109.5t-295.5 -24q-39 0 -148 33l70 328q95 -37 209 -37q97 0 153 31.5t122.5 126.5t211.5 338l-328 2199h410l201 -1745h8z" />
    <glyph glyph-name="Ucircumflex" unicode="&#x443;" horiz-adv-x="2048" 
d="M1794 2142h397q-132 -232 -378 -664.5t-456.5 -793t-381.5 -643.5q-225 -372 -334.5 -535.5t-205 -249t-197 -109.5t-295.5 -24q-39 0 -148 33l70 328q95 -37 209 -37q97 0 153 31.5t122.5 126.5t211.5 338l-328 2199h410l201 -1745h8z" />
    <glyph glyph-name="Ugrave" unicode="&#xf4;" horiz-adv-x="2957" 
d="M1081 225h-8q-241 -286 -467 -286q-557 0 -557 675q0 228 66 521q61 286 179 526.5t306 391.5t436 151q115 0 185.5 -28.5t110.5 -72.5t68 -104.5t46 -102.5h8l33 246l139 656h361l-140 -656l-73 -246h8q46 53 97 109.5t108.5 99t139.5 71t195 28.5q183 0 300 -85.5
t169 -233.5t52 -337q0 -173 -50 -413q-257 -1196 -999 -1196q-228 0 -344 286h-8l-230 -1073h-360zM1270 971q73 342 73 520q0 389 -290 389q-168 0 -284 -121t-181 -292t-113 -390q-61 -284 -61 -463q0 -364 291 -364q415 0 565 721zM1827 250q163 0 274 103.5t180 279.5
t127 444q54 244 54 414q0 384 -287 389q-167 0 -284.5 -119t-192 -317.5t-133.5 -472.5q-41 -191 -41 -332q0 -389 303 -389z" />
    <glyph glyph-name="Ugrave" unicode="&#x444;" horiz-adv-x="2957" 
d="M1081 225h-8q-241 -286 -467 -286q-557 0 -557 675q0 228 66 521q61 286 179 526.5t306 391.5t436 151q115 0 185.5 -28.5t110.5 -72.5t68 -104.5t46 -102.5h8l33 246l139 656h361l-140 -656l-73 -246h8q46 53 97 109.5t108.5 99t139.5 71t195 28.5q183 0 300 -85.5
t169 -233.5t52 -337q0 -173 -50 -413q-257 -1196 -999 -1196q-228 0 -344 286h-8l-230 -1073h-360zM1270 971q73 342 73 520q0 389 -290 389q-168 0 -284 -121t-181 -292t-113 -390q-61 -284 -61 -463q0 -364 291 -364q415 0 565 721zM1827 250q163 0 274 103.5t180 279.5
t127 444q54 244 54 414q0 384 -287 389q-167 0 -284.5 -119t-192 -317.5t-133.5 -472.5q-41 -191 -41 -332q0 -389 303 -389z" />
    <glyph glyph-name="dotlessi" unicode="&#xf5;" horiz-adv-x="2048" 
d="M1741 0h-459l-360 807l-689 -807h-454l987 1102l-496 1040h463l336 -753l655 753h443l-946 -1040z" />
    <glyph glyph-name="dotlessi" unicode="&#x445;" horiz-adv-x="2048" 
d="M1741 0h-459l-360 807l-689 -807h-454l987 1102l-496 1040h463l336 -753l655 753h443l-946 -1040z" />
    <glyph glyph-name="circumflex" unicode="&#xf6;" 
d="M1614 0h-1602l455 2142h360l-389 -1843h1004l389 1843h360l-389 -1843h197l-180 -848h-320z" />
    <glyph glyph-name="circumflex" unicode="&#x446;" 
d="M1614 0h-1602l455 2142h360l-389 -1843h1004l389 1843h360l-389 -1843h197l-180 -848h-320z" />
    <glyph glyph-name="tilde" unicode="&#xf7;" 
d="M1376 0l205 967q-103 -37 -325 -92.5t-445 -55.5q-524 0 -524 398q0 61 20 163l160 762h360l-151 -708q-8 -58 -8 -74q0 -225 344 -225q173 0 358 43t272 71l189 893h360l-454 -2142h-361z" />
    <glyph glyph-name="tilde" unicode="&#x447;" 
d="M1376 0l205 967q-103 -37 -325 -92.5t-445 -55.5q-524 0 -524 398q0 61 20 163l160 762h360l-151 -708q-8 -58 -8 -74q0 -225 344 -225q173 0 358 43t272 71l189 893h360l-454 -2142h-361z" />
    <glyph glyph-name="macron" unicode="&#xf8;" horiz-adv-x="2957" 
d="M1458 299h660l389 1843h360l-454 -2142h-2401l455 2142h360l-389 -1843h660l389 1843h360z" />
    <glyph glyph-name="macron" unicode="&#x448;" horiz-adv-x="2957" 
d="M1458 299h660l389 1843h360l-454 -2142h-2401l455 2142h360l-389 -1843h660l389 1843h360z" />
    <glyph glyph-name="breve" unicode="&#xf9;" horiz-adv-x="2957" 
d="M2290 0h-2278l455 2142h360l-389 -1843h660l389 1843h360l-389 -1843h660l389 1843h360l-389 -1843h197l-181 -848h-319z" />
    <glyph glyph-name="breve" unicode="&#x449;" horiz-adv-x="2957" 
d="M2290 0h-2278l455 2142h360l-389 -1843h660l389 1843h360l-389 -1843h660l389 1843h360l-389 -1843h197l-181 -848h-319z" />
    <glyph glyph-name="dotaccent" unicode="&#xfa;" 
d="M2003 631q-37 -175 -150 -317.5t-312 -228t-476 -85.5h-819l393 1843h-512l61 299h873l-193 -901h459q692 0 692 -463q0 -76 -16 -147zM672 299h454q242 0 358.5 79.5t153.5 260.5q13 53 13 98q0 114 -89.5 165.5t-291.5 51.5h-459z" />
    <glyph glyph-name="dotaccent" unicode="&#x44a;" 
d="M2003 631q-37 -175 -150 -317.5t-312 -228t-476 -85.5h-819l393 1843h-512l61 299h873l-193 -901h459q692 0 692 -463q0 -76 -16 -147zM672 299h454q242 0 358.5 79.5t153.5 260.5q13 53 13 98q0 114 -89.5 165.5t-291.5 51.5h-459z" />
    <glyph glyph-name="ring" unicode="&#xfb;" horiz-adv-x="2884" 
d="M2339 0h-361l455 2142h360zM1774 631q-37 -175 -150 -317.5t-312.5 -228t-475.5 -85.5h-824l455 2142h360l-192 -901h463q692 0 692 -459q0 -80 -16 -151zM438 299h459q242 0 358.5 79.5t153.5 260.5q12 49 12 90q0 118 -92 171.5t-289 53.5h-462z" />
    <glyph glyph-name="ring" unicode="&#x44b;" horiz-adv-x="2884" 
d="M2339 0h-361l455 2142h360zM1774 631q-37 -175 -150 -317.5t-312.5 -228t-475.5 -85.5h-824l455 2142h360l-192 -901h463q692 0 692 -459q0 -80 -16 -151zM438 299h459q242 0 358.5 79.5t153.5 260.5q12 49 12 90q0 118 -92 171.5t-289 53.5h-462z" />
    <glyph glyph-name="cedilla" unicode="&#xfc;" horiz-adv-x="2048" 
d="M1774 631q-37 -175 -150 -317.5t-312.5 -228t-475.5 -85.5h-824l455 2142h360l-192 -901h463q692 0 692 -459q0 -80 -16 -151zM438 299h459q242 0 358.5 79.5t153.5 260.5q12 49 12 90q0 118 -92 171.5t-289 53.5h-462z" />
    <glyph glyph-name="cedilla" unicode="&#x44c;" horiz-adv-x="2048" 
d="M1774 631q-37 -175 -150 -317.5t-312.5 -228t-475.5 -85.5h-824l455 2142h360l-192 -901h463q692 0 692 -459q0 -80 -16 -151zM438 299h459q242 0 358.5 79.5t153.5 260.5q12 49 12 90q0 118 -92 171.5t-289 53.5h-462z" />
    <glyph glyph-name="hungarumlaut" unicode="&#xfd;" horiz-adv-x="2236" 
d="M1663 1241q16 76 16 164q0 215 -121.5 351t-369.5 136q-237 0 -408 -145.5t-256 -325.5h-336q63 163 209 339.5t368 301.5t488 129q280 0 462.5 -114.5t263.5 -300.5t81 -412q0 -119 -28 -270q-74 -341 -248 -603.5t-438.5 -407t-600.5 -144.5q-249 0 -411 126
t-235.5 298.5t-73.5 308.5h356q0 -82 58.5 -182t156.5 -170t211 -70q310 0 524 191.5t283 516.5h-1012l57 283h1004z" />
    <glyph glyph-name="hungarumlaut" unicode="&#x44d;" horiz-adv-x="2236" 
d="M1663 1241q16 76 16 164q0 215 -121.5 351t-369.5 136q-237 0 -408 -145.5t-256 -325.5h-336q63 163 209 339.5t368 301.5t488 129q280 0 462.5 -114.5t263.5 -300.5t81 -412q0 -119 -28 -270q-74 -341 -248 -603.5t-438.5 -407t-600.5 -144.5q-249 0 -411 126
t-235.5 298.5t-73.5 308.5h356q0 -82 58.5 -182t156.5 -170t211 -70q310 0 524 191.5t283 516.5h-1012l57 283h1004z" />
    <glyph glyph-name="ogonek" unicode="&#xfe;" horiz-adv-x="3072" 
d="M946 971h-368l-205 -971h-361l455 2142h360l-188 -885h377q90 262 244.5 475.5t382 342.5t516.5 129q262 0 431 -107.5t245.5 -289.5t76.5 -406q0 -164 -37 -328q-62 -291 -217.5 -549.5t-406 -419.5t-572.5 -161q-262 0 -430 107t-243.5 287.5t-75.5 407.5q0 127 16 226
zM1745 254q340 0 515 251.5t243 567.5q32 164 32 287q0 229 -99.5 380.5t-342.5 151.5q-340 0 -513 -252.5t-241 -566.5q-36 -162 -36 -315q0 -504 442 -504z" />
    <glyph glyph-name="ogonek" unicode="&#x44e;" horiz-adv-x="3072" 
d="M946 971h-368l-205 -971h-361l455 2142h360l-188 -885h377q90 262 244.5 475.5t382 342.5t516.5 129q262 0 431 -107.5t245.5 -289.5t76.5 -406q0 -164 -37 -328q-62 -291 -217.5 -549.5t-406 -419.5t-572.5 -161q-262 0 -430 107t-243.5 287.5t-75.5 407.5q0 127 16 226
zM1745 254q340 0 515 251.5t243 567.5q32 164 32 287q0 229 -99.5 380.5t-342.5 151.5q-340 0 -513 -252.5t-241 -566.5q-36 -162 -36 -315q0 -504 442 -504z" />
    <glyph glyph-name="caron" unicode="&#xff;" 
d="M-102 0l856 909q-95 0 -193 58.5t-163.5 167.5t-65.5 249q0 40 16 132q63 300 306.5 463t611.5 163h913l-455 -2142h-360l192 901h-389l-827 -901h-442zM1757 1843h-553q-402 0 -471 -327q-12 -49 -12 -91q0 -237 344 -237h553z" />
    <glyph glyph-name="caron" unicode="&#x44f;" 
d="M-102 0l856 909q-95 0 -193 58.5t-163.5 167.5t-65.5 249q0 40 16 132q63 300 306.5 463t611.5 163h913l-455 -2142h-360l192 901h-389l-827 -901h-442zM1757 1843h-553q-402 0 -471 -327q-12 -49 -12 -91q0 -237 344 -237h553z" />
    </font>
</defs>
</svg>
