<svg xmlns="http://www.w3.org/2000/svg" width="512" height="512"><path d="M512 129.029C512 57.77 439.257 0 349.533 0c-89.731 0-162.467 57.77-162.467 129.029 0 63.663 58.056 116.554 134.419 127.108h-.231c4.007 24.614-3.386 50.749-22.191 69.733 40.349 0 73.657-30.389 78.716-69.729h-.231C453.921 245.596 512 192.701 512 129.029z" data-original="#FFD24D" class="active-path" data-old_color="#dd2b1d" fill="#dd2b1d"/><circle cx="292.261" cy="129.024" r="11.378" data-original="#F14742" data-old_color="#F7F1F1" fill="#f8f3f3"/><circle cx="406.801" cy="129.024" r="11.378" data-original="#F14742" data-old_color="#F7F1F1" fill="#f8f3f3"/><circle cx="349.536" cy="129.024" r="11.378" data-original="#F14742" data-old_color="#F7F1F1" fill="#f8f3f3"/><path d="M349.998 411.754c-24.59-24.589-50.926-45.288-50.926-45.288L260.7 404.838 107.162 251.3l38.372-38.373s-20.698-26.336-45.288-50.926c-24.59-24.589-50.926-45.288-50.926-45.288S3.343 159.01.25 192.558c-4.137 44.904 43.395 126.545 118.021 201.172 74.626 74.625 156.267 122.157 201.171 118.021 33.547-3.094 75.845-49.071 75.845-49.071s-20.699-26.338-45.289-50.926z" data-original="#1B4145" fill="#1b4145"/></svg>