<svg xmlns="http://www.w3.org/2000/svg" width="512" height="512"><path d="M21.333 256c0-40.365 14.448-79.583 40.677-110.427 3.813-4.479 3.271-11.219-1.219-15.031-4.458-3.802-11.219-3.292-15.031 1.219C16.25 166.448 0 210.573 0 256s16.25 89.552 45.76 124.24a10.628 10.628 0 0 0 8.125 3.76c2.448 0 4.906-.833 6.906-2.542 4.49-3.813 5.031-10.552 1.219-15.031C35.781 335.583 21.333 296.365 21.333 256z" data-original="#000000" class="active-path" data-old_color="#dd2b1d" fill="#dd2b1d"/><path d="M124.242 130.542c-4.458-3.802-11.219-3.292-15.031 1.219-29.51 34.688-45.76 78.813-45.76 124.24s16.25 89.552 45.76 124.24a10.628 10.628 0 0 0 8.125 3.76c2.448 0 4.906-.833 6.906-2.542 4.49-3.813 5.031-10.552 1.219-15.031C99.232 335.583 84.784 296.365 84.784 256s14.448-79.583 40.677-110.427c3.812-4.479 3.271-11.219-1.219-15.031z" data-original="#000000" class="active-path" data-old_color="#dd2b1d" fill="#dd2b1d"/><path d="M320 64c-105.865 0-192 86.135-192 192s86.135 192 192 192 192-86.135 192-192S425.865 64 320 64zm71.542 263.542a10.634 10.634 0 0 1-7.542 3.125 10.636 10.636 0 0 1-7.542-3.125l-51.26-51.26c-1.707.441-3.355 1.052-5.198 1.052-11.76 0-21.333-9.573-21.333-21.333 0-7.792 4.409-14.329 10.667-18.053v-99.28c0-5.896 4.771-10.667 10.667-10.667s10.667 4.771 10.667 10.667v99.28c6.258 3.724 10.667 10.262 10.667 18.053 0 1.842-.611 3.491-1.052 5.198l51.26 51.26c4.165 4.166 4.165 10.916-.001 15.083z" data-original="#000000" class="active-path" data-old_color="#dd2b1d" fill="#dd2b1d"/></svg>