<svg xmlns="http://www.w3.org/2000/svg" viewBox="0 0 511.999 511.999" width="512" height="512"><path d="M483.112 385.722l28.599-145.493c1.618-8.232-3.743-16.216-11.974-17.835-8.24-1.616-16.216 3.745-17.835 11.975l-26.19 133.233h-38.625a30.728 30.728 0 0 0 14.751-8.106 30.73 30.73 0 0 0 9.111-21.756l.285-104.227c.047-17.089-13.871-30.936-30.951-30.814l-28.268.202c-17.072.122-30.775 14.151-30.507 31.214l.371 23.528 26.981-30.01-27.761 49.758h-63.112c-10.136 0-18.351 8.216-18.351 18.352 0 10.136 8.216 18.352 18.351 18.352h73.887a18.35 18.35 0 0 0 16.025-9.411l28.542-51.158c-4.183 19.682-10.184 38.734-17.111 56.674-3.008 7.79-9.836 13.782-19.238 15.271l-67.771-.198c-7.217-.053-14.094 3.506-18.258 9.615a22.017 22.017 0 0 0-2.282 20.509l49.988 126.325c4.478 11.317 17.277 16.847 28.579 12.374 11.309-4.475 16.849-17.271 12.374-28.579l-6.365-16.086 19.841-51.446h57.687l35.128 91.086c2.016 5.227 7.885 7.814 13.092 5.805 5.219-2.013 7.817-7.875 5.805-13.092l-32.317-83.8h2.615a15.192 15.192 0 0 0 14.904-12.262zm-127.749 35.924l-20.671-52.239 19.89.058c-4.705 2.581-7.897 7.58-7.897 13.325 0 8.389 6.801 15.19 15.19 15.19h2.615l-9.127 23.666z" data-original="#000000" class="active-path" data-old_color="#dd2b1d" fill="#dd2b1d"/><circle cx="372.26" cy="148.34" r="40.502" data-original="#000000" class="active-path" data-old_color="#dd2b1d" fill="#dd2b1d"/><path d="M150.127 314.091h73.887c10.136 0 18.351-8.216 18.351-18.352s-8.216-18.349-18.351-18.349h-63.111l-27.763-49.757 26.98 30.009.371-23.528c.269-17.071-13.442-31.092-30.507-31.214l-28.268-.202c-17.089-.122-30.998 13.735-30.951 30.814l.285 104.227a30.734 30.734 0 0 0 9.112 21.756 30.733 30.733 0 0 0 14.751 8.106H56.288l-26.19-133.233c-1.617-8.233-9.604-13.592-17.835-11.975-8.232 1.618-13.594 9.603-11.974 17.835l28.6 145.493a15.19 15.19 0 0 0 14.905 12.261h2.614L14.09 481.779c-2.012 5.219.587 11.08 5.806 13.092 5.21 2.01 11.078-.581 13.091-5.804l35.128-91.086h57.687l19.842 51.445-6.365 16.086c-4.475 11.309 1.064 24.104 12.374 28.579 11.303 4.474 24.102-1.061 28.579-12.374l49.988-126.325a22.02 22.02 0 0 0-2.282-20.509 22.065 22.065 0 0 0-18.193-9.615h-.065c-72.037.21-67.491.239-68.215.124-8.818-1.401-15.775-7.436-18.796-15.197l-17.111-56.674 28.544 51.159a18.346 18.346 0 0 0 16.025 9.411zm0 83.891c8.389 0 15.19-6.801 15.19-15.191 0-5.746-3.192-10.745-7.897-13.325l19.89-.058-20.672 52.24-9.128-23.666h2.617z" data-original="#000000" class="active-path" data-old_color="#dd2b1d" fill="#dd2b1d"/><circle cx="139.745" cy="148.34" r="40.502" data-original="#000000" class="active-path" data-old_color="#dd2b1d" fill="#dd2b1d"/><path d="M246.224 16.353c-40.061 0-72.537 23.385-72.537 52.233 0 15.512 9.399 29.437 24.309 39.004l-10.055 20.08a5.198 5.198 0 0 0 7.226 6.841l28.505-16.279c7.1 1.671 14.675 2.587 22.55 2.587 40.063 0 72.538-23.386 72.538-52.233.001-28.848-32.474-52.233-72.536-52.233z" data-original="#000000" class="active-path" data-old_color="#dd2b1d" fill="#dd2b1d"/></svg>