<svg xmlns="http://www.w3.org/2000/svg" viewBox="0 0 58 58" width="512" height="512"><path data-original="#EFEBDE" data-old_color="#dd2b1d" fill="#dd2b1d" d="M46.5 14l-14-14h-31v58h45z"/><path d="M11.5 23h25a1 1 0 1 0 0-2h-25a1 1 0 1 0 0 2zm0-8h10a1 1 0 1 0 0-2h-10a1 1 0 1 0 0 2zm25 14h-25a1 1 0 1 0 0 2h25a1 1 0 1 0 0-2zm0 8h-25a1 1 0 1 0 0 2h25a1 1 0 1 0 0-2zm0 8h-25a1 1 0 1 0 0 2h25a1 1 0 1 0 0-2zm-4-45v14h14z" data-original="#D5D0BB" data-old_color="#B11B0E" fill="#ac190c"/><circle cx="44.5" cy="46" r="12" data-original="#ED7161" class="active-path" data-old_color="#0B4226" fill="#113523"/><path d="M45.914 46l3.536-3.536a.999.999 0 1 0-1.414-1.414L44.5 44.586l-3.536-3.536a.999.999 0 1 0-1.414 1.414L43.086 46l-3.536 3.536a.999.999 0 1 0 1.414 1.414l3.536-3.536 3.536 3.536a.997.997 0 0 0 1.414 0 .999.999 0 0 0 0-1.414L45.914 46z" data-original="#FFFFFF" fill="#fff"/></svg>