<svg xmlns="http://www.w3.org/2000/svg" viewBox="0 0 54.981 54.981" width="512" height="512"><path d="M43.992 52H8.72a8.364 8.364 0 0 1-8.364-8.364V8.364A8.364 8.364 0 0 1 8.72 0h35.272a8.364 8.364 0 0 1 8.364 8.364v35.272A8.364 8.364 0 0 1 43.992 52z" data-original="#3ABCA7" class="active-path" data-old_color="#dd2b1d" fill="#dd2b1d"/><path d="M44.356 14h-18a1 1 0 1 1 0-2h18a1 1 0 1 1 0 2zm0 14h-18a1 1 0 1 1 0-2h18a1 1 0 1 1 0 2zm0 14h-18a1 1 0 1 1 0-2h18a1 1 0 1 1 0 2zM12.427 17a.997.997 0 0 1-.6-.2l-4.571-3.429a.999.999 0 1 1 1.2-1.599l3.822 2.866 6.248-7.288a.999.999 0 1 1 1.518 1.301l-6.857 8a1 1 0 0 1-.76.349zm0 14a.997.997 0 0 1-.6-.2l-4.571-3.429a.999.999 0 1 1 1.2-1.599l3.822 2.866 6.248-7.288a.999.999 0 1 1 1.518 1.301l-6.857 8a1 1 0 0 1-.76.349zm0 14.999a.997.997 0 0 1-.6-.2L7.256 42.37a.999.999 0 1 1 1.2-1.599l3.822 2.866 6.248-7.287a.997.997 0 0 1 1.41-.108c.419.359.468.99.108 1.409l-6.857 7.999a1 1 0 0 1-.76.349z" data-original="#FFFFFF" fill="#fff"/><path data-original="#EDDCC7" fill="#eddcc7" d="M33.192 45.489l-.008.007-1.988 7.29 4.647-4.647z"/><path d="M52.442 31.54l-1.247-1.247a1.985 1.985 0 0 0-2.807 0l-3.582 3.582 2.651 2.651 4.985-4.986z" data-original="#D75A4A" fill="#d75a4a"/><path data-original="#F29C21" fill="#f29c21" d="M44.806 33.875l2.65 2.65L35.844 48.14l-2.65-2.651z"/><path data-original="#D6C4B1" fill="#d6c4b1" d="M38.841 51.153l.008-.008-3.006-3.006-4.647 4.647-.133.488z"/><path d="M50.462 39.532l3.582-3.582a1.985 1.985 0 0 0 0-2.807l-1.602-1.602-4.985 4.985 3.005 3.006z" data-original="#A34740" fill="#a34740"/><path data-original="#E18C25" fill="#e18c25" d="M38.848 51.146l-3.006-3.006 11.613-11.613 3.006 3.006z"/><path d="M30.356 54.981a.999.999 0 0 1-.707-1.707l2.207-2.207a.999.999 0 1 1 1.414 1.414l-2.207 2.207a.993.993 0 0 1-.707.293z" data-original="#5E5E5E" fill="#5e5e5e"/></svg>