<svg xmlns="http://www.w3.org/2000/svg" width="512" height="512" viewBox="0 0 421.551 421.551"><path d="M261.63 338.759a36.348 36.348 0 0 1 15.579-11.446 86.452 86.452 0 0 1-11.777-42.464 87.127 87.127 0 0 1 .127-5.438l-22.257-8.874-19.711-16.606c-5.205-4.396-12.895-4.072-17.721.729l-27.4 27.247-27.48-27.257a13.124 13.124 0 0 0-17.709-.719l-19.709 16.606-84.166 33.562C2.306 314.889 2.326 410.868 0 419.679h230.729c-3.401-4.857-5.569-10.511-6.286-16.564-1.142-9.646 1.545-19.158 7.56-26.783l29.627-37.573zm89.53 30.918h-.006a86.494 86.494 0 0 1-24.922-3.701 36.282 36.282 0 0 1-7.505 17.813l-28.303 35.889h66.484c-1.062-4.006-1.64-26.112-4.521-50.02-.407.007-.815.019-1.227.019zM119.736 85.901c15.574 7.396 36.426 11.47 58.721 11.47 22.293 0 43.146-4.073 58.719-11.47 9.617-4.574 16.367-10.071 19.572-15.768l-.293-.103c-9.432-114.567-66.672-50.064-77.998-50.064-11.328 0-68.568-64.503-78 50.064-.1.034-.195.066-.293.103 3.203 5.698 9.953 11.195 19.572 15.768z" data-original="#000000" class="active-path" data-old_color="#dd2b1d" fill="#dd2b1d"/><path d="M94.548 139.408c3.695 67.991 39.098 108.022 83.893 108.022s80.172-40.025 83.877-108.006c21.729-8.581 35.188-20.473 35.188-33.612 0-11.674-10.625-22.365-28.231-30.623-4.353 8.786-13.339 16.645-26.346 22.826-17.334 8.235-40.236 12.771-64.475 12.771-24.24 0-47.143-4.537-64.479-12.771-13.004-6.182-21.99-14.04-26.342-22.826-17.607 8.258-28.232 18.949-28.232 30.623.003 13.131 13.442 25.019 35.147 33.596zm300.266 89.274c-30.439-24.005-74.73-18.773-98.734 11.663-20.68 26.22-19.658 62.727.481 87.681l-10.063 12.764a20.752 20.752 0 0 0-12.619 7.588l-29.633 37.572c-7.125 9.031-5.576 22.13 3.457 29.253 9.031 7.124 22.129 5.577 29.256-3.455l29.631-37.571a20.737 20.737 0 0 0 4.439-14.039l10.063-12.76c28.965 13.771 64.697 6.262 85.383-19.963 24.007-30.436 18.775-74.73-11.661-98.733zm-4.697 85.833c-16.892 21.418-48.06 25.101-69.476 8.207-21.42-16.895-25.102-48.061-8.207-69.479 16.894-21.419 48.062-25.102 69.478-8.209 21.418 16.893 25.1 48.061 8.205 69.481z" data-original="#000000" class="active-path" data-old_color="#dd2b1d" fill="#dd2b1d"/></svg>