<svg xmlns="http://www.w3.org/2000/svg" width="512" height="512" viewBox="0 0 32 32"><path d="M30.271 20.987l-3.307-10.309h-.838v-.564c1.639-.404 1.667-2.02 1.667-2.02s-.621.729-1.667 1.012V8.66h-.654v.555c-.027.001-.052.008-.08.009-1.49.036-2.162-2.436-4.037-2.436-1.746 0-3.696 1.039-4.957 1.183V5.158a1.854 1.854 0 0 0 1.574-1.831 1.858 1.858 0 1 0-3.718 0c0 .98.762 1.775 1.725 1.847V7.95c-1.261-.199-3.132-1.162-4.816-1.162-1.875 0-2.545 2.472-4.036 2.436-.121-.004-.232-.023-.346-.038V8.66h-.654v.373c-.887-.322-1.4-.938-1.4-.938s.028 1.431 1.4 1.934v.649H5.29l-3.365 10.31H0s1.381 2.639 6.327 2.639 6.327-2.639 6.327-2.639h-1.729L7.62 10.679h-.839v-.496c.132.014.27.022.419.022 2.437 0 2.8-1.545 4.146-1.545 1.211 0 2.63 1.504 4.379 1.808.075.021.442-.004.332.023L16 16.268l-1.111 2.25.038 6.778h-3.054v1.199l-2.455 4.037h13.963l-3-4.092v-1.146h-2.672v-6.716l-1.125-2.364-.001-5.737c.101-.001.097.021.213-.01 1.749-.304 3.168-1.808 4.379-1.808 1.347 0 1.709 1.545 4.146 1.545.056 0 .102-.006.152-.008v.48h-.836l-3.365 10.309h-1.926s1.381 2.639 6.327 2.639S32 20.987 32 20.987h-1.729zm-24.144 0H2.614l3.15-9.653h.363v9.653zm1.016-9.654l3.096 9.652H6.781v-9.652h.362zm18.33 9.654h-3.514l3.15-9.653h.363v9.653h.001zm.654 0v-9.654h.361l3.096 9.652-3.457.002z" data-original="#000000" class="active-path" data-old_color="#dd2b1d" fill="#dd2b1d"/></svg>