<svg xmlns="http://www.w3.org/2000/svg" viewBox="0 0 56 56" width="512" height="512"><path d="M43.636 52H8.364A8.364 8.364 0 0 1 0 43.636V8.364A8.364 8.364 0 0 1 8.364 0h35.272A8.364 8.364 0 0 1 52 8.364v35.272A8.364 8.364 0 0 1 43.636 52z" data-original="#3ABCA7" class="active-path" data-old_color="#dd2b1d" fill="#dd2b1d"/><path d="M44 14H26a1 1 0 1 1 0-2h18a1 1 0 1 1 0 2zm0 14H26a1 1 0 1 1 0-2h18a1 1 0 1 1 0 2zm0 14H26a1 1 0 1 1 0-2h18a1 1 0 1 1 0 2zM12.071 17a.997.997 0 0 1-.6-.2L6.9 13.371a.999.999 0 1 1 1.2-1.599l3.822 2.866L18.17 7.35a.999.999 0 1 1 1.518 1.301l-6.857 8a1 1 0 0 1-.76.349zm0 14a.997.997 0 0 1-.6-.2L6.9 27.371a.999.999 0 1 1 1.2-1.599l3.822 2.866 6.248-7.288a.999.999 0 1 1 1.518 1.301l-6.857 8a1 1 0 0 1-.76.349zm0 14.999a.997.997 0 0 1-.6-.2L6.9 42.37a.999.999 0 1 1 1.2-1.599l3.822 2.866 6.248-7.287a.997.997 0 0 1 1.41-.108c.419.359.468.99.108 1.409l-6.857 7.999a1 1 0 0 1-.76.349z" data-original="#FFFFFF" fill="#fff"/><path d="M54.805 46.679l-.107.163c-7.121 10.876-18.773 10.876-25.893 0l.107-.163c7.121-10.876 18.773-10.876 25.893 0z" data-original="#FFFFFF" fill="#fff"/><circle cx="41.569" cy="44.397" r="5.909" data-original="#556080" fill="#556080"/><path d="M41.752 56c-5.254 0-10.148-3.058-13.783-8.609l-.358-.547.465-.711c3.635-5.552 8.53-8.609 13.784-8.609 5.253 0 10.148 3.057 13.783 8.609l.357.546-.465.711C51.9 52.942 47.005 56 41.752 56zm-11.744-9.161C33.214 51.463 37.365 54 41.752 54c4.436 0 8.63-2.594 11.85-7.317-3.206-4.624-7.356-7.161-11.743-7.161-4.437 0-8.63 2.594-11.851 7.317z" data-original="#B1D3EF" fill="#b1d3ef"/></svg>